<svg width="700" height="584" viewBox="0 0 700 584" fill="none" xmlns="http://www.w3.org/2000/svg">
<path d="M589.01 124.285H448.26V165.214H589.01V124.285Z" fill="#F5F5F5"/>
<path d="M106.35 123.195V299.903H247.1V123.195" fill="#F5F5F5"/>
<path d="M252.53 120.275H100.91V126.115H252.53V120.275Z" fill="#E3E3E3"/>
<path d="M248.1 300.877H105.35V123.195H107.35V298.93H246.1V123.195H248.1V300.877Z" fill="#E3E3E3"/>
<path d="M139.08 178.724C137.975 178.726 136.876 178.586 135.81 178.305L137.15 173.438C137.78 173.598 138.428 173.679 139.08 173.682C140.667 173.679 142.213 173.181 143.488 172.261C144.764 171.34 145.702 170.045 146.165 168.567C146.629 167.089 146.593 165.505 146.062 164.048C145.532 162.591 144.536 161.338 143.22 160.474L146.13 156.278C148.365 157.747 150.058 159.874 150.961 162.348C151.864 164.822 151.929 167.512 151.146 170.025C150.363 172.537 148.774 174.739 146.611 176.308C144.449 177.877 141.827 178.73 139.13 178.743L139.08 178.724Z" fill="#E4E4E4"/>
<path d="M138.19 188.058C132.154 188.05 126.368 185.712 122.101 181.557C117.834 177.402 115.435 171.77 115.43 165.895H120.43C120.428 169.315 121.468 172.658 123.419 175.502C125.369 178.347 128.143 180.564 131.389 181.873C134.634 183.183 138.206 183.526 141.652 182.859C145.098 182.193 148.264 180.546 150.748 178.128C153.232 175.71 154.924 172.629 155.609 169.275C156.294 165.921 155.941 162.444 154.596 159.285C153.25 156.126 150.973 153.426 148.05 151.527C145.128 149.629 141.693 148.616 138.18 148.618V143.752C141.209 143.69 144.221 144.217 147.039 145.303C149.856 146.389 152.423 148.011 154.588 150.075C156.753 152.138 158.473 154.602 159.648 157.321C160.822 160.04 161.427 162.96 161.427 165.91C161.427 168.859 160.822 171.779 159.648 174.498C158.473 177.217 156.753 179.681 154.588 181.744C152.423 183.808 149.856 185.43 147.039 186.516C144.221 187.602 141.209 188.129 138.18 188.067L138.19 188.058Z" fill="#E4E4E4"/>
<path d="M138.34 183.094C135.343 183.109 132.391 182.379 129.766 180.972C127.141 179.565 124.929 177.528 123.34 175.054L127.58 172.455C128.844 174.411 130.649 175.981 132.787 176.985C134.924 177.99 137.31 178.389 139.669 178.136C142.029 177.883 144.268 176.989 146.131 175.556C147.993 174.124 149.404 172.21 150.201 170.033C150.998 167.857 151.151 165.506 150.64 163.249C150.13 160.993 148.977 158.921 147.314 157.272C145.651 155.623 143.545 154.463 141.237 153.924C138.928 153.385 136.51 153.489 134.26 154.225L132.67 149.592C135.098 148.797 137.675 148.527 140.222 148.799C142.769 149.07 145.224 149.878 147.419 151.165C149.613 152.452 151.493 154.188 152.929 156.253C154.366 158.318 155.323 160.662 155.736 163.123C156.149 165.585 156.007 168.104 155.32 170.506C154.633 172.908 153.418 175.136 151.758 177.036C150.099 178.936 148.035 180.462 145.709 181.508C143.383 182.554 140.852 183.095 138.29 183.094H138.34Z" fill="#D1D1D1"/>
<path d="M159.13 208.167H117.26V210.113H159.13V208.167Z" fill="#E3E3E3"/>
<path d="M159.13 213.218H117.26V215.165H159.13V213.218Z" fill="#E3E3E3"/>
<path d="M134.44 218.26H117.26V220.207H134.44V218.26Z" fill="#E3E3E3"/>
<path d="M159.13 224.305H146.71V226.251H159.13V224.305Z" fill="#E3E3E3"/>
<path d="M159.13 229.035H152.92V230.982H159.13V229.035Z" fill="#E3E3E3"/>
<path d="M177.72 169.74H175.72V188.223H177.72V169.74Z" fill="#E3E3E3"/>
<path d="M187.27 163.783H185.27V188.213H187.27V163.783Z" fill="#E3E3E3"/>
<path d="M196.82 158.05H194.82V188.223H196.82V158.05Z" fill="#E3E3E3"/>
<path d="M206.37 151.256H204.37V188.213H206.37V151.256Z" fill="#E3E3E3"/>
<path d="M215.92 147.47H213.92V188.223H215.92V147.47Z" fill="#E3E3E3"/>
<path d="M225.46 151.256H223.46V188.213H225.46V151.256Z" fill="#E3E3E3"/>
<path d="M235.01 141.834H233.01V188.223H235.01V141.834Z" fill="#E3E3E3"/>
<path d="M177.27 162.634L176.18 160.999L214.92 136.539L224.24 142.438L233.22 131.205L234.8 132.403L224.69 145.036L214.92 138.865L177.27 162.634Z" fill="#E3E3E3"/>
<path d="M248.1 300.877H105.35V123.195H107.35V298.93H246.1V123.195H248.1V300.877Z" fill="#D1D1D1"/>
<path d="M139.08 178.724C137.975 178.726 136.876 178.586 135.81 178.305L137.15 173.438C137.78 173.598 138.428 173.679 139.08 173.682C140.667 173.679 142.213 173.181 143.488 172.261C144.764 171.34 145.702 170.045 146.165 168.567C146.629 167.089 146.593 165.505 146.062 164.048C145.532 162.591 144.536 161.338 143.22 160.474L146.13 156.278C148.365 157.747 150.058 159.874 150.961 162.348C151.864 164.822 151.929 167.512 151.146 170.025C150.363 172.537 148.774 174.739 146.611 176.308C144.449 177.877 141.827 178.73 139.13 178.743L139.08 178.724Z" fill="#E4E4E4"/>
<path d="M138.19 188.058C132.154 188.05 126.368 185.712 122.101 181.557C117.834 177.402 115.435 171.77 115.43 165.895H120.43C120.428 169.315 121.468 172.658 123.419 175.502C125.369 178.347 128.143 180.564 131.389 181.873C134.634 183.183 138.206 183.526 141.652 182.859C145.098 182.193 148.264 180.546 150.748 178.128C153.232 175.71 154.924 172.629 155.609 169.275C156.294 165.921 155.941 162.444 154.596 159.285C153.25 156.126 150.973 153.426 148.05 151.527C145.128 149.629 141.693 148.616 138.18 148.618V143.752C141.209 143.69 144.221 144.217 147.039 145.303C149.856 146.389 152.423 148.011 154.588 150.075C156.753 152.138 158.473 154.602 159.648 157.321C160.822 160.04 161.427 162.96 161.427 165.91C161.427 168.859 160.822 171.779 159.648 174.498C158.473 177.217 156.753 179.681 154.588 181.744C152.423 183.808 149.856 185.43 147.039 186.516C144.221 187.602 141.209 188.129 138.18 188.067L138.19 188.058Z" fill="#E4E4E4"/>
<path d="M138.34 183.094C135.343 183.109 132.391 182.379 129.766 180.972C127.141 179.565 124.929 177.528 123.34 175.054L127.58 172.455C128.844 174.411 130.649 175.981 132.787 176.985C134.924 177.99 137.31 178.389 139.669 178.136C142.029 177.883 144.268 176.989 146.131 175.556C147.993 174.124 149.404 172.21 150.201 170.033C150.998 167.857 151.151 165.506 150.64 163.249C150.13 160.993 148.977 158.921 147.314 157.272C145.651 155.623 143.545 154.463 141.237 153.924C138.928 153.385 136.51 153.489 134.26 154.225L132.67 149.592C135.098 148.797 137.675 148.527 140.222 148.799C142.769 149.07 145.224 149.878 147.419 151.165C149.613 152.452 151.493 154.188 152.929 156.253C154.366 158.318 155.323 160.662 155.736 163.123C156.149 165.585 156.007 168.104 155.32 170.506C154.633 172.908 153.418 175.136 151.758 177.036C150.099 178.936 148.035 180.462 145.709 181.508C143.383 182.554 140.852 183.095 138.29 183.094H138.34Z" fill="#D1D1D1"/>
<path d="M159.13 207.68H117.26V210.6H159.13V207.68Z" fill="#D1D1D1"/>
<path d="M159.13 212.732H117.26V215.652H159.13V212.732Z" fill="#D1D1D1"/>
<path d="M134.44 217.774H117.26V220.694H134.44V217.774Z" fill="#D1D1D1"/>
<path d="M159.13 223.818H146.71V226.738H159.13V223.818Z" fill="#D1D1D1"/>
<path d="M159.13 228.548H152.92V231.468H159.13V228.548Z" fill="#D1D1D1"/>
<path d="M178.22 169.74H175.22V188.223H178.22V169.74Z" fill="#D1D1D1"/>
<path d="M187.77 163.783H184.77V188.213H187.77V163.783Z" fill="#D1D1D1"/>
<path d="M197.32 158.05H194.32V188.223H197.32V158.05Z" fill="#D1D1D1"/>
<path d="M206.87 151.256H203.87V188.213H206.87V151.256Z" fill="#D1D1D1"/>
<path d="M216.42 147.47H213.42V188.223H216.42V147.47Z" fill="#D1D1D1"/>
<path d="M225.96 151.256H222.96V188.213H225.96V151.256Z" fill="#D1D1D1"/>
<path d="M235.51 141.834H232.51V188.223H235.51V141.834Z" fill="#D1D1D1"/>
<path d="M177.54 163.043L175.91 160.59L214.92 135.965L224.13 141.785L232.83 130.913L235.2 132.704L224.8 145.689L214.92 139.44L177.54 163.043Z" fill="#D1D1D1"/>
<path d="M173.16 358.741L140.65 531.06H145.81L196.91 358.741H173.16Z" fill="#17212B"/>
<path d="M522.07 358.741L554.58 531.06H549.42L498.32 358.741H522.07Z" fill="#17212B"/>
<path d="M535.63 345.465H164.02V363.267H535.63V345.465Z" fill="#2F4559"/>
<path d="M170.83 336.228C170.409 338.438 170.409 340.705 170.83 342.915L171.48 347.188C171.48 347.188 164.77 349.699 163.48 350.702C162.19 351.704 162.48 353.972 169.67 354.478C176.86 354.984 179.48 354.478 179.48 354.478L184.64 350.205L183.35 342.915C183.35 342.915 184.89 344.998 186.18 345.465C187.47 345.932 190.57 345.465 190.57 345.465C188.739 343.803 187.015 342.031 185.41 340.161C185.001 339.596 184.467 339.128 183.847 338.791C183.228 338.454 182.538 338.257 181.83 338.214L170.83 336.228Z" fill="#FFBC9D"/>
<path d="M259.71 513.492L264.64 531.012H315.39C315.39 531.012 314.96 515.565 296.77 515.565H270.44L259.71 513.492Z" fill="#1F3C88"/>
<path d="M234.83 479.182L218.77 485.557V531.051C218.77 531.051 234.64 530.642 234.64 512.927V498.648L243 484.331L234.83 479.182Z" fill="#1F3C88"/>
<path d="M230.83 299.903C224.642 308.457 219.967 317.958 217 328.013C212.36 344.21 226.81 390.56 230.81 406.007C234.81 421.453 237.81 430.875 237.81 430.875V441.514C237.808 447.705 238.621 453.871 240.23 459.861L256.04 515.643H287.04L257.33 305.286L230.83 299.903Z" fill="#17212B"/>
<path d="M267.35 303.106C267.35 303.106 271.76 316.353 285.62 338.146C299.48 359.939 314.18 384.457 315.35 389.732C316.52 395.008 292.35 452.279 237.83 496.741L229.83 473.381C243.396 447.463 259.469 422.863 277.83 399.913C277.83 399.913 256.9 376.554 248.39 366.003C239.88 355.452 243.74 297.422 243.74 297.422L267.35 303.106Z" fill="#17212B"/>
<path d="M339.48 269.954C341.804 270.25 344.157 270.25 346.48 269.954C350.1 269.448 358.35 265.934 358.35 265.934L359.66 258.897H347.66L336.89 262.041L335.66 265.934L339.48 269.954Z" fill="#FFBC9D"/>
<path d="M277.82 451.695C276.09 440.015 274.36 428.413 272.73 416.752C271.1 405.092 269.47 393.451 267.85 381.79C266.23 370.13 264.73 358.43 263.16 346.808C261.59 335.187 260.16 323.448 258.83 311.768C260.65 323.4 262.32 335.051 264 346.701C265.68 358.352 267.28 370.003 268.8 381.673C270.32 393.344 271.95 405.033 273.43 416.665C274.91 428.296 276.39 440.015 277.82 451.695Z" fill="#636363"/>
<path d="M260.89 508.216C258.75 493.623 256.65 479.023 254.59 464.416C252.5 449.816 250.54 435.216 248.51 420.616C246.48 406.016 244.59 391.416 242.62 376.816L239.8 354.877L237.09 332.929L240.33 354.809L243.46 376.68C245.46 391.28 247.54 405.88 249.46 420.48C251.38 435.08 253.4 449.68 255.28 464.28C257.16 478.88 259.06 493.587 260.89 508.216Z" fill="#636363"/>
<path d="M237.83 239.868C237.83 239.868 232.83 236.948 226.83 242.788C220.83 248.628 188.83 281.722 188.83 281.722C188.83 281.722 175.83 313.842 170.83 336.228L181.83 338.175C181.83 338.175 196.12 314.221 207.35 294.063L227.28 274.665L230.83 299.904C230.83 299.904 244.51 310.27 267.35 303.106L274.51 276.164C274.51 276.164 281.67 289.041 289.6 291.455C297.53 293.869 341.28 271.268 341.28 271.268L336.83 262.041L295.83 273.156C295.83 273.156 285.76 261.097 280.73 253.748C275.7 246.399 268.9 237.941 257.73 239.82C251.15 240.965 244.416 240.982 237.83 239.868Z" fill="#1F3C88"/>
<path d="M278.83 212.615C278.83 212.615 281.83 211.642 283.83 203.855C285.83 196.068 287.83 186.335 279.83 183.415C271.83 180.495 266.83 193.148 266.83 193.148L275.83 211.642L278.83 212.615Z" fill="#17212B"/>
<path d="M279.83 189.255V211.642C279.83 211.642 279.83 223.322 271.83 226.242C263.83 229.162 257.83 226.242 257.83 226.242C257.226 229.132 257.226 232.111 257.83 235.002L258.83 239.868C258.83 239.868 257.33 245.806 248.83 245.708C241.76 245.63 237.83 239.868 237.83 239.868C237.83 239.868 244.83 232.082 244.83 223.322C244.83 214.562 243.83 195.095 243.83 195.095L258.83 190.228L279.83 189.255Z" fill="#FFBC9D"/>
<path d="M418.09 292.428H342.1V337.202H418.09V292.428Z" fill="#F2F3F4"/>
<path d="M417.09 293.402V336.228H343.09V293.402H417.09ZM419.09 291.455H341.09V338.175H419.09V291.455Z" fill="#17212B"/>
<path d="M432.41 339.148H342.1V344.492H432.41V339.148Z" fill="#F2F3F4"/>
<path d="M431.41 340.122V343.519H343.1V340.122H431.41ZM433.41 338.175H341.1V345.465H433.41V338.175Z" fill="#17212B"/>
<path d="M254.83 209.695C254.83 209.695 265.83 208.722 275.83 198.988C285.83 189.255 281.83 181.468 274.83 178.548C267.83 175.628 263.83 176.602 254.83 178.548C254.83 178.548 256.83 167.842 243.83 167.842C230.83 167.842 228.83 185.362 240.83 186.335C240.83 186.335 232.83 191.202 232.83 204.828C232.83 218.455 244.83 225.268 244.83 225.268C244.83 225.268 252.33 225.755 249.33 218.942C249.33 218.942 253.33 218.942 252.33 216.022C251.33 213.102 249.33 216.995 247.33 210.182C245.33 203.368 251.33 200.448 253.33 205.315C255.33 210.182 254.83 209.695 254.83 209.695Z" fill="#17212B"/>
<path d="M356.58 277.994H343.95L341.1 249.183H359.43L356.58 277.994Z" fill="#1A2D31"/>
<path d="M361.24 249.183H339.43V251.86H361.24V249.183Z" fill="#1A2D31"/>
<path d="M336.83 262.041C336.83 262.041 339.06 257.865 343.78 257.505C346.389 257.362 348.952 256.772 351.35 255.763C351.35 255.763 352.83 257.145 349.83 258.897C346.83 260.649 344.23 262.041 344.23 262.041L340.38 265.934L336.83 262.041Z" fill="#FFBC9D"/>
<path d="M358.57 256.405C358.57 256.405 356.06 255.763 353.57 258.401C350.79 261.398 357.49 266.937 357.49 266.937C357.49 266.937 358.74 268.572 359.25 264.172C359.76 259.773 361.23 257.077 358.57 256.405Z" fill="#FFBC9D"/>
<path d="M466.44 212.615L461.86 239.138C461.86 239.138 459.73 249.981 466.44 251.869C473.15 253.758 475.22 253.748 475.22 253.748C476.471 258.162 476.471 262.824 475.22 267.238C476.938 269.266 479.19 270.801 481.736 271.677C484.282 272.553 487.025 272.738 489.67 272.212C498.99 270.45 497.41 265.934 497.41 265.934C496.373 259.236 495.769 252.48 495.6 245.708C495.35 234.661 498.12 216.956 486.54 212.615C474.96 208.274 466.44 212.615 466.44 212.615Z" fill="#FFBC9D"/>
<path d="M445 370.928C445 370.928 399.33 382.608 388.49 386.374C377.65 390.141 371.49 398.434 374.16 418.027C376.83 437.62 391.58 511.467 391.58 511.467H423.71L416.36 416.519H481.8L497.41 397.762L486.54 375.444L445 370.928Z" fill="#1F3C88"/>
<path d="M485.28 370.928C485.28 370.928 439.6 382.608 428.76 386.374C417.92 390.141 411.76 398.434 414.44 418.027C417.12 437.62 431.86 511.467 431.86 511.467H464L456.64 416.519H522.06C526.739 410.903 529.69 404.115 530.575 396.937C531.46 389.758 530.241 382.483 527.06 375.95L526.82 375.444L485.28 370.928Z" fill="#1F3C88"/>
<path d="M373.79 304.186C371.92 302.162 369.79 302.074 366.37 302.093C362.95 302.113 356.47 299.972 355.2 297.431C353.93 294.891 350.33 286.559 356.13 286.724C356.13 286.724 361.6 289.888 366.06 290.472C368.461 290.732 370.804 291.362 373 292.341C371.751 290.838 370.618 289.247 369.61 287.581C368.14 285.06 369.99 281.245 371.9 283.688C373.81 286.131 378.27 290.277 379.71 292.603C380.737 294.319 381.656 296.093 382.46 297.918L373.79 304.186Z" fill="#FFBC9D"/>
<path d="M479.86 234.408C479.101 234.141 478.466 233.618 478.07 232.934C477.673 232.25 477.542 231.45 477.7 230.68C478.23 228.013 478.64 224.032 477.02 221.832C474.44 218.309 469.8 217.813 465.41 216.304C461.02 214.795 461.28 210.775 463.09 206.756C464.9 202.736 464.09 201.48 468.25 200.731C472.41 199.981 476.25 197.626 480.89 196.545C485.53 195.465 491.22 195.202 496.12 199.222L501.02 203.242C501.02 203.242 508.02 203.991 510.31 210.055C512.6 216.119 509.8 219.35 509.31 224.12C508.82 228.889 510.86 229.395 507.76 232.16C504.66 234.924 504.15 239.946 503.12 241.698C502.09 243.45 497.7 252.006 493.31 253.758C493.31 253.758 487.12 253.845 483.25 250.536C479.38 247.227 475.76 242.38 477.83 239.148C479.9 235.917 479.29 241.309 483.12 237.435C486.95 233.561 487.63 228.889 483.76 228.14C483.76 228.14 479.51 227.011 479.89 234.418L479.86 234.408Z" fill="#17212B"/>
<path d="M458.7 268.893L511.22 264.026C511.22 264.026 521.54 262.732 528.22 273.76C534.9 284.788 552.61 315.01 552.61 315.01L524.22 392.876C524.22 392.876 490.15 400.41 467.45 389.363C444.75 378.315 444.99 370.869 444.99 370.869L461.83 360.163L447.83 317.462L419.06 338.087C416.61 339.8 410.13 340.151 407.85 338.224L370.41 305.403L382.31 293.947L412.25 311.778C412.25 311.778 440.12 283.649 445.25 277.994C450.38 272.339 452.55 269.448 458.7 268.893Z" fill="#17212B"/>
<path d="M544.12 313.958H599.12L559.25 408.8C557.755 412.368 555.201 415.421 551.915 417.571C548.629 419.721 544.76 420.869 540.8 420.869H461.86L481.8 412.752C481.8 412.752 491.48 414.63 503.86 384.116C516.24 353.602 532 317.044 532 317.044L544.12 313.958Z" fill="#2F4559"/>
<path d="M421.28 511.467L425.41 530.077H373.55C373.55 530.077 368.12 511.467 391.6 511.467H421.28Z" fill="#17212B"/>
<path d="M464.89 511.467L469 530.077H417.16C417.16 530.077 411.73 511.467 435.22 511.467H464.89Z" fill="#17212B"/>
<path d="M400.89 420.86C400.89 418.02 402.049 415.297 404.111 413.289C406.174 411.281 408.972 410.153 411.89 410.153H471.6C472.21 410.153 486.42 409.851 494.5 393.129C502.58 376.407 517.56 342.448 525.23 324.996C526.656 321.736 529.035 318.956 532.072 317.002C535.109 315.048 538.669 314.006 542.31 314.007C542.07 314.572 515.68 374.519 504.45 397.714C493.22 420.908 472.45 420.889 471.55 420.879L400.89 420.86Z" fill="#2F4559"/>
<path d="M419.09 417.054H410.57V530.087H419.09V417.054Z" fill="#2F4559"/>
<path d="M482.19 417.054H473.67V531.06H482.19V417.054Z" fill="#2F4559"/>
<path d="M540.51 417.054H531.99V531.06H540.51V417.054Z" fill="#2F4559"/>
<path d="M223.35 334.262C224.44 334.321 225.53 334.369 226.62 334.34C227.71 334.311 228.79 334.34 229.87 334.214C232.018 334.046 234.151 333.721 236.25 333.24C238.324 332.734 240.336 332.01 242.25 331.079L243.67 330.34C244.13 330.077 244.56 329.756 245.01 329.464C245.906 328.866 246.764 328.216 247.58 327.517C246.219 329.221 244.543 330.664 242.64 331.77C240.715 332.871 238.632 333.684 236.46 334.184C234.303 334.679 232.095 334.934 229.88 334.944C227.683 334.975 225.49 334.746 223.35 334.262Z" fill="#636363"/>
<path d="M447.86 317.55C449.92 315.613 452.105 313.806 454.4 312.138C456.664 310.431 459.05 308.882 461.54 307.505C459.49 309.452 457.305 311.26 455 312.917C452.721 314.603 450.337 316.151 447.86 317.55Z" fill="#636363"/>
<path d="M274.51 276.164C275.051 274.879 275.434 273.536 275.65 272.163C275.913 270.807 276.017 269.426 275.96 268.046C275.889 265.304 275.264 262.602 274.12 260.094C272.863 257.611 271.433 255.214 269.84 252.921C268.32 250.546 266.84 248.151 265.41 245.708C267.16 247.937 268.82 250.225 270.41 252.522C271.25 253.66 272.05 254.819 272.86 255.977C273.25 256.571 273.62 257.184 274 257.797C274.38 258.41 274.65 259.072 275 259.744C275.35 260.415 275.52 261.077 275.78 261.749C276.04 262.42 276.16 263.131 276.35 263.812C276.632 265.216 276.757 266.646 276.72 268.075C276.682 270.908 275.923 273.687 274.51 276.164Z" fill="#636363"/>
<path d="M227.28 274.665C228.66 272.855 230.08 271.103 231.54 269.36C233 267.618 234.45 265.895 235.95 264.192L238.18 261.661C238.911 260.819 239.579 259.928 240.18 258.994C240.779 258.078 241.269 257.098 241.64 256.074C242.031 255.036 242.165 253.922 242.03 252.823C242.395 253.922 242.447 255.096 242.18 256.22C241.917 257.342 241.496 258.422 240.93 259.432C240.374 260.441 239.721 261.395 238.98 262.284C238.23 263.189 237.46 263.988 236.71 264.844C235.204 266.531 233.664 268.192 232.09 269.827C230.5 271.453 228.92 273.078 227.28 274.665Z" fill="#636363"/>
<path d="M542.31 313.958C535.643 329.473 528.87 344.949 521.99 360.386C518.556 368.102 515.08 375.804 511.56 383.493C509.793 387.328 508.006 391.16 506.2 394.988C504.481 398.877 502.349 402.579 499.84 406.036C494.668 412.995 487.192 418.01 478.67 420.237C476.555 420.785 474.386 421.111 472.2 421.21C470.01 421.21 467.87 421.21 465.7 421.21H452.7L426.78 421.083L400.85 420.86L426.78 420.645L452.7 420.509H465.7C467.85 420.509 470.04 420.509 472.16 420.509C474.289 420.404 476.401 420.077 478.46 419.536C486.772 417.313 494.061 412.405 499.13 405.617C501.624 402.215 503.739 398.564 505.44 394.726C507.27 390.91 509.05 387.085 510.83 383.25L521.4 360.133L542.31 313.958Z" fill="#17212B"/>
<path d="M350.83 52.9493H348.83V111.33H350.83V52.9493Z" fill="#E3E3E3"/>
<path d="M392.59 130.835H307.08V132.782H392.59V130.835Z" fill="#F2F3F4"/>
<path d="M349.83 142.808C347.595 142.808 345.411 142.162 343.552 140.954C341.694 139.745 340.246 138.028 339.39 136.018C338.535 134.008 338.311 131.797 338.747 129.663C339.183 127.53 340.26 125.57 341.84 124.032C343.42 122.493 345.434 121.446 347.626 121.022C349.818 120.597 352.09 120.815 354.155 121.647C356.219 122.48 357.984 123.89 359.226 125.698C360.468 127.507 361.13 129.634 361.13 131.809C361.128 134.725 359.936 137.521 357.818 139.583C355.699 141.645 352.826 142.805 349.83 142.808ZM349.83 122.757C347.991 122.757 346.193 123.288 344.663 124.282C343.134 125.277 341.942 126.691 341.238 128.345C340.534 129.999 340.35 131.819 340.709 133.575C341.068 135.331 341.954 136.944 343.254 138.21C344.555 139.476 346.212 140.338 348.016 140.687C349.82 141.036 351.69 140.857 353.389 140.172C355.089 139.487 356.541 138.326 357.563 136.838C358.585 135.349 359.13 133.599 359.13 131.809C359.128 129.409 358.147 127.108 356.403 125.411C354.66 123.714 352.296 122.759 349.83 122.757Z" fill="#E3E3E3"/>
<path d="M590.01 166.197H447.26V124.285H449.26V164.25H588.01V124.285H590.01V166.197Z" fill="#D1D1D1"/>
<path d="M519.63 165.214H517.63V192.71H519.63V165.214Z" fill="#D1D1D1"/>
<path d="M518.63 205.957C517.184 205.957 515.77 205.54 514.568 204.758C513.366 203.975 512.429 202.863 511.876 201.563C511.323 200.262 511.179 198.831 511.462 197.451C511.744 196.07 512.442 194.802 513.465 193.808C514.488 192.813 515.792 192.136 517.21 191.863C518.629 191.589 520.099 191.732 521.435 192.272C522.77 192.812 523.911 193.725 524.713 194.896C525.515 196.068 525.942 197.444 525.94 198.852C525.94 199.786 525.751 200.711 525.384 201.573C525.016 202.436 524.478 203.22 523.799 203.88C523.12 204.54 522.314 205.063 521.427 205.419C520.54 205.776 519.59 205.959 518.63 205.957ZM518.63 193.684C517.58 193.684 516.553 193.987 515.68 194.555C514.807 195.123 514.126 195.93 513.724 196.874C513.323 197.819 513.217 198.858 513.422 199.86C513.627 200.863 514.133 201.784 514.876 202.507C515.618 203.229 516.564 203.722 517.594 203.921C518.624 204.12 519.692 204.018 520.662 203.627C521.633 203.236 522.462 202.573 523.045 201.723C523.629 200.873 523.94 199.874 523.94 198.852C523.938 197.483 523.377 196.171 522.382 195.204C521.386 194.236 520.037 193.693 518.63 193.693V193.684Z" fill="#D1D1D1"/>
<path d="M594.44 121.365H442.82V127.205H594.44V121.365Z" fill="#E3E3E3"/>
<path d="M383.37 131.809H316.29V129.648C316.293 120.991 319.828 112.69 326.117 106.57C332.407 100.45 340.936 97.0121 349.83 97.0121C358.724 97.0121 367.253 100.45 373.543 106.57C379.833 112.69 383.367 120.991 383.37 129.648V131.809Z" fill="#F5F5F5"/>
<path d="M252.53 120.275H100.91V126.115H252.53V120.275Z" fill="#E3E3E3"/>
</svg>
