
<svg class="ropa" 
id="Layer_1" data-name="Layer 1" xmlns="http://www.w3.org/2000/svg" viewBox="0 0 700 600"><title>Corporate Illustrations Pack - Scene 2</title><rect x="448.26" y="127.69" width="140.75" height="42.05" fill="#f5f5f5"/><polyline points="106.35 126.57 106.35 308.12 247.1 308.12 247.1 126.57" fill="#f5f5f5"/><rect x="100.91" y="123.57" width="151.62" height="6" fill="#e3e3e3"/><polygon points="248.1 309.12 105.35 309.12 105.35 126.57 107.35 126.57 107.35 307.12 246.1 307.12 246.1 126.57 248.1 126.57 248.1 309.12" fill="#e3e3e3"/><path d="M139.08,183.62a12.39,12.39,0,0,1-3.27-.43l1.34-5a7.8,7.8,0,0,0,1.93.25,7.42,7.42,0,0,0,4.14-13.57l2.91-4.31a12.62,12.62,0,0,1-7,23.08Z" fill="#e4e4e4"/><path d="M138.19,193.21a22.79,22.79,0,0,1-22.76-22.77h5a17.76,17.76,0,1,0,17.75-17.75v-5a22.77,22.77,0,1,1,0,45.53Z" fill="#e4e4e4"/><path d="M138.34,188.11a17.58,17.58,0,0,1-15-8.26l4.24-2.67a12.65,12.65,0,1,0,6.68-18.73l-1.59-4.76a17.67,17.67,0,1,1,5.62,34.42Z" fill="#d1d1d1"/><rect x="117.26" y="213.87" width="41.87" height="2" fill="#e3e3e3"/><rect x="117.26" y="219.06" width="41.87" height="2" fill="#e3e3e3"/><rect x="117.26" y="224.24" width="17.18" height="2" fill="#e3e3e3"/><rect x="146.71" y="230.45" width="12.42" height="2" fill="#e3e3e3"/><rect x="152.92" y="235.31" width="6.21" height="2" fill="#e3e3e3"/><rect x="175.72" y="174.39" width="2" height="18.99" fill="#e3e3e3"/><rect x="185.27" y="168.27" width="2" height="25.1" fill="#e3e3e3"/><rect x="194.82" y="162.38" width="2" height="31" fill="#e3e3e3"/><rect x="204.37" y="155.4" width="2" height="37.97" fill="#e3e3e3"/><rect x="213.92" y="151.51" width="2" height="41.87" fill="#e3e3e3"/><rect x="223.46" y="155.4" width="2" height="37.97" fill="#e3e3e3"/><rect x="233.01" y="145.72" width="2" height="47.66" fill="#e3e3e3"/><polygon points="177.27 167.09 176.18 165.41 214.92 140.28 224.24 146.34 233.22 134.8 234.8 136.03 224.69 149.01 214.92 142.67 177.27 167.09" fill="#e3e3e3"/><polygon points="248.1 309.12 105.35 309.12 105.35 126.57 107.35 126.57 107.35 307.12 246.1 307.12 246.1 126.57 248.1 126.57 248.1 309.12" fill="#d1d1d1"/><path d="M139.08,183.62a12.39,12.39,0,0,1-3.27-.43l1.34-5a7.8,7.8,0,0,0,1.93.25,7.42,7.42,0,0,0,4.14-13.57l2.91-4.31a12.62,12.62,0,0,1-7,23.08Z" fill="#e4e4e4"/><path d="M138.19,193.21a22.79,22.79,0,0,1-22.76-22.77h5a17.76,17.76,0,1,0,17.75-17.75v-5a22.77,22.77,0,1,1,0,45.53Z" fill="#e4e4e4"/><path d="M138.34,188.11a17.58,17.58,0,0,1-15-8.26l4.24-2.67a12.65,12.65,0,1,0,6.68-18.73l-1.59-4.76a17.67,17.67,0,1,1,5.62,34.42Z" fill="#d1d1d1"/><rect x="117.26" y="213.37" width="41.87" height="3" fill="#d1d1d1"/><rect x="117.26" y="218.56" width="41.87" height="3" fill="#d1d1d1"/><rect x="117.26" y="223.74" width="17.18" height="3" fill="#d1d1d1"/><rect x="146.71" y="229.95" width="12.42" height="3" fill="#d1d1d1"/><rect x="152.92" y="234.81" width="6.21" height="3" fill="#d1d1d1"/><rect x="175.22" y="174.39" width="3" height="18.99" fill="#d1d1d1"/><rect x="184.77" y="168.27" width="3" height="25.1" fill="#d1d1d1"/><rect x="194.32" y="162.38" width="3" height="31" fill="#d1d1d1"/><rect x="203.87" y="155.4" width="3" height="37.97" fill="#d1d1d1"/><rect x="213.42" y="151.51" width="3" height="41.87" fill="#d1d1d1"/><rect x="222.96" y="155.4" width="3" height="37.97" fill="#d1d1d1"/><rect x="232.51" y="145.72" width="3" height="47.66" fill="#d1d1d1"/><polygon points="177.54 167.51 175.91 164.99 214.92 139.69 224.13 145.67 232.83 134.5 235.2 136.34 224.8 149.68 214.92 143.26 177.54 167.51" fill="#d1d1d1"/><polygon points="173.16 368.57 140.65 545.61 145.81 545.61 196.91 368.57 173.16 368.57" fill="#17212b"/><polygon points="522.07 368.57 554.58 545.61 549.42 545.61 498.32 368.57 522.07 368.57" fill="#17212b"/><rect x="164.02" y="354.93" width="371.61" height="18.29" fill="#2f4559"/><path d="M170.83,345.44a18.86,18.86,0,0,0,0,6.87l.65,4.39s-6.71,2.58-8,3.61-1,3.36,6.19,3.88,9.81,0,9.81,0l5.16-4.39-1.29-7.49s1.54,2.14,2.83,2.62,4.39,0,4.39,0a60.41,60.41,0,0,1-5.16-5.45,4.74,4.74,0,0,0-3.58-2Z" fill="#ffbc9d"/><path d="M259.71,527.56l4.93,18h50.75s-.43-15.87-18.62-15.87H270.44Z" fill="#1F3C88"/><path d="M234.83,492.31l-16.06,6.55V545.6s15.87-.42,15.87-18.62V512.31L243,497.6Z" fill="#1F3C88"/><path d="M230.83,308.12A96.36,96.36,0,0,0,217,337c-4.64,16.64,9.81,64.26,13.81,80.13s7,25.55,7,25.55v10.93a74.45,74.45,0,0,0,2.42,18.85l15.81,57.31h31L257.33,313.65Z" fill="#17212b"/><path d="M267.35,311.41s4.41,13.61,18.27,36,28.56,47.58,29.73,53-23,64.26-77.52,109.94l-8-24a470.35,470.35,0,0,1,48-75.48s-20.93-24-29.44-34.84-4.65-70.46-4.65-70.46Z" fill="#17212b"/><path d="M339.48,277.35a27,27,0,0,0,7,0c3.62-.52,11.87-4.13,11.87-4.13l1.31-7.23h-12l-10.77,3.23-1.23,4Z" fill="#ffbc9d"/><path d="M277.82,464.07c-1.73-12-3.46-23.92-5.09-35.9s-3.26-23.94-4.88-35.92-3.12-24-4.69-35.94-3-24-4.33-36c1.82,11.95,3.49,23.92,5.17,35.89s3.28,23.94,4.8,35.93,3.15,24,4.63,35.95S276.39,452.07,277.82,464.07Z" fill="#636363"/><path d="M260.89,522.14q-3.21-22.49-6.3-45c-2.09-15-4.05-30-6.08-45s-3.92-30-5.89-45L239.8,364.6l-2.71-22.55,3.24,22.48L243.46,387c2,15,4.08,30,6,45s3.94,30,5.82,45S259.06,507.11,260.89,522.14Z" fill="#636363"/><path d="M237.83,246.44s-5-3-11,3-38,40-38,40-13,33-18,56l11,2s14.29-24.61,25.52-45.32l19.93-19.93,3.55,25.93s13.68,10.65,36.52,3.29l7.16-27.68s7.16,13.23,15.09,15.71,51.68-20.74,51.68-20.74l-4.45-9.48-41,11.42s-10.07-12.39-15.1-19.94-11.83-16.24-23-14.31A57.31,57.31,0,0,1,237.83,246.44Z" /><path d="M278.83,218.44s3-1,5-9,4-18-4-21-13,10-13,10l9,19Z" fill="#17212b"/><path d="M279.83,194.44v23s0,12-8,15-14,0-14,0a22.58,22.58,0,0,0,0,9l1,5s-1.5,6.1-10,6c-7.07-.08-11-6-11-6s7-8,7-17-1-29-1-29l15-5Z" fill="#ffbc9d"/><rect x="342.1" y="300.44" width="75.99" height="46" fill="#f2f3f4"/><path d="M417.09,301.44v44h-74v-44h74m2-2h-78v48h78v-48Z" fill="#17212b"/><rect x="342.1" y="348.44" width="90.31" height="5.49" fill="#f2f3f4"/><path d="M431.41,349.44v3.49H343.1v-3.49h88.31m2-2H341.1v7.49h92.31v-7.49Z" fill="#17212b"/><path d="M254.83,215.44s11-1,21-11,6-18-1-21-11-2-20,0c0,0,2-11-11-11s-15,18-3,19c0,0-8,5-8,19s12,21,12,21,7.5.5,4.5-6.5c0,0,4,0,3-3s-3,1-5-6,4-10,6-5S254.83,215.44,254.83,215.44Z" fill="#17212b"/><polygon points="356.58 285.61 343.95 285.61 341.1 256.01 359.43 256.01 356.58 285.61" fill="#1a2d31"/><rect x="339.43" y="256.01" width="21.81" height="2.75" fill="#1a2d31"/><path d="M336.83,269.22s2.23-4.29,6.95-4.66a22.24,22.24,0,0,0,7.57-1.79s1.48,1.42-1.52,3.22-5.6,3.23-5.6,3.23l-3.85,4Z" fill="#ffbc9d"/><path d="M358.57,263.43s-2.51-.66-5,2.05c-2.78,3.08,3.92,8.77,3.92,8.77s1.25,1.68,1.76-2.84S361.23,264.12,358.57,263.43Z" fill="#ffbc9d"/><path d="M466.44,218.44l-4.58,27.25s-2.13,11.14,4.58,13.08,8.78,1.93,8.78,1.93a26.07,26.07,0,0,1,0,13.86,14.87,14.87,0,0,0,14.45,5.11c9.32-1.81,7.74-6.45,7.74-6.45a166.57,166.57,0,0,1-1.81-20.78c-.25-11.35,2.52-29.54-9.06-34S466.44,218.44,466.44,218.44Z" fill="#ffbc9d"/><path d="M445,381.09s-45.67,12-56.51,15.87-17,12.39-14.33,32.52,17.42,96,17.42,96h32.13l-7.35-97.55H481.8l15.61-19.27-10.87-22.93Z" fill="#1F3C88"/><path d="M485.28,381.09s-45.68,12-56.52,15.87-17,12.39-14.32,32.52,17.42,96,17.42,96H464l-7.36-97.55h65.42a39.39,39.39,0,0,0,5-41.68l-.24-.52Z" fill="#1F3C88"/><path d="M373.79,312.52c-1.87-2.08-4-2.17-7.42-2.15s-9.9-2.18-11.17-4.79-4.87-11.17.93-11c0,0,5.47,3.25,9.93,3.85a22.71,22.71,0,0,1,6.94,1.92,40.1,40.1,0,0,1-3.39-4.89c-1.47-2.59.38-6.51,2.29-4s6.37,6.77,7.81,9.16a50.08,50.08,0,0,1,2.75,5.46Z" fill="#ffbc9d"/><path d="M479.86,240.83A3.37,3.37,0,0,1,477.7,237c.53-2.74.94-6.83-.68-9.09-2.58-3.62-7.22-4.13-11.61-5.68s-4.13-5.68-2.32-9.81,1-5.42,5.16-6.19,8-3.19,12.64-4.3,10.33-1.38,15.23,2.75l4.9,4.13s7,.77,9.29,7-.51,9.55-1,14.45,1.55,5.42-1.55,8.26-3.61,8-4.64,9.8-5.42,10.59-9.81,12.39c0,0-6.19.09-10.06-3.31s-7.49-8.38-5.42-11.7,1.46,2.22,5.29-1.76,4.51-8.78.64-9.55c0,0-4.25-1.16-3.87,6.45Z" fill="#17212b"/><path d="M458.7,276.26l52.52-5s10.32-1.33,17,10,24.39,42.38,24.39,42.38l-28.39,80s-34.07,7.74-56.77-3.61-22.46-19-22.46-19l16.84-11-14-43.87-28.77,21.19c-2.45,1.76-8.93,2.12-11.21.14l-37.44-33.72L382.31,302l29.94,18.32s27.87-28.9,33-34.71S452.55,276.83,458.7,276.26Z" fill="#17212b"/><path d="M544.12,322.56h55L559.25,420A19.93,19.93,0,0,1,540.8,432.4H461.86l19.94-8.34s9.68,1.93,22.06-29.42S532,325.73,532,325.73Z" fill="#2f4559"/><path d="M421.28,525.48l4.13,19.12H373.55s-5.43-19.12,18.05-19.12Z" fill="#17212b"/><path d="M464.89,525.48,469,544.6H417.16s-5.43-19.12,18.06-19.12Z" fill="#17212b"/><path d="M400.89,432.39h0a11,11,0,0,1,11-11H471.6c.61,0,14.82-.31,22.9-17.49s23.06-52.07,30.73-70a18.56,18.56,0,0,1,17.08-11.29h0c-.24.58-26.63,62.17-37.86,86s-32,23.81-32.9,23.8Z" fill="#2f4559"/><rect x="410.57" y="428.48" width="8.52" height="116.13" fill="#2f4559"/><rect x="473.67" y="428.48" width="8.52" height="117.13" fill="#2f4559"/><rect x="531.99" y="428.48" width="8.52" height="117.13" fill="#2f4559"/><path d="M223.35,343.42c1.09.06,2.18.11,3.27.08s2.17,0,3.25-.13a42.78,42.78,0,0,0,6.38-1,29.4,29.4,0,0,0,6-2.22l1.42-.76c.46-.27.89-.6,1.34-.9a27,27,0,0,0,2.57-2,17.85,17.85,0,0,1-4.94,4.37,22.36,22.36,0,0,1-6.18,2.48,29.22,29.22,0,0,1-6.58.78A27.1,27.1,0,0,1,223.35,343.42Z" fill="#636363"/><path d="M447.86,326.25a67.65,67.65,0,0,1,6.54-5.56,60.28,60.28,0,0,1,7.14-4.76,62.79,62.79,0,0,1-6.54,5.56A69.21,69.21,0,0,1,447.86,326.25Z" fill="#636363"/><path d="M274.51,283.73a18.07,18.07,0,0,0,1.14-4.11,18.81,18.81,0,0,0,.31-4.23,21.48,21.48,0,0,0-1.84-8.17,62.55,62.55,0,0,0-4.28-7.37c-1.52-2.44-3-4.9-4.43-7.41,1.75,2.29,3.41,4.64,5,7,.84,1.17,1.64,2.36,2.45,3.55.39.61.76,1.24,1.14,1.87s.65,1.31,1,2,.52,1.37.78,2.06.38,1.42.57,2.12a20.2,20.2,0,0,1,.37,4.38A17.6,17.6,0,0,1,274.51,283.73Z" fill="#636363"/><path d="M227.28,282.19c1.38-1.86,2.8-3.66,4.26-5.45s2.91-3.56,4.41-5.31l2.23-2.6a24,24,0,0,0,2-2.74,14.76,14.76,0,0,0,1.46-3,7.22,7.22,0,0,0,.39-3.34,6.55,6.55,0,0,1,.15,3.49,12.91,12.91,0,0,1-1.25,3.3,18.65,18.65,0,0,1-1.95,2.93c-.75.93-1.52,1.75-2.27,2.63q-2.26,2.6-4.62,5.12C230.5,278.89,228.92,280.56,227.28,282.19Z" fill="#636363"/><path d="M402.66,519c-2-13-4-26-6-39L391,441l-1.42-9.75a82.38,82.38,0,0,1-1-9.85,24.71,24.71,0,0,1,.31-5,12.73,12.73,0,0,1,1.8-4.74,12.4,12.4,0,0,1,3.63-3.55,22.87,22.87,0,0,1,4.48-2.24,69.33,69.33,0,0,1,9.57-2.55l9.64-2.07c6.43-1.36,12.87-2.63,19.32-3.89l-19.2,4.42-9.6,2.24a71,71,0,0,0-9.42,2.65c-3,1.16-5.94,2.8-7.66,5.48s-2,6-1.91,9.23a92.6,92.6,0,0,0,1.06,9.74l1.38,9.75,5.47,39C399.21,492.91,400.93,505.93,402.66,519Z" fill="#636363"/><path d="M542.31,322.56q-10,23.91-20.32,47.7-5.15,11.89-10.43,23.74-2.65,5.91-5.36,11.81a62.38,62.38,0,0,1-6.36,11.35,38.42,38.42,0,0,1-21.17,14.59,30.63,30.63,0,0,1-6.47,1c-2.19,0-4.33,0-6.5,0l-13,0-25.92-.13-25.93-.23,25.93-.22,25.92-.14,13,0c2.15,0,4.34,0,6.46,0a30,30,0,0,0,6.3-1,38,38,0,0,0,20.67-14.3,60.53,60.53,0,0,0,6.31-11.19c1.83-3.92,3.61-7.85,5.39-11.79L521.4,370Z" fill="#17212b"/><rect x="348.83" y="54.4" width="2" height="59.98" fill="#e3e3e3"/><rect x="307.08" y="134.42" width="85.51" height="2" fill="#f2f3f4"/><path d="M349.83,146.72a11.3,11.3,0,1,1,11.3-11.3A11.31,11.31,0,0,1,349.83,146.72Zm0-20.6a9.3,9.3,0,1,0,9.3,9.3A9.31,9.31,0,0,0,349.83,126.12Z" fill="#e3e3e3"/><polygon points="590.01 170.75 447.26 170.75 447.26 127.69 449.26 127.69 449.26 168.75 588.01 168.75 588.01 127.69 590.01 127.69 590.01 170.75" fill="#d1d1d1"/><rect x="517.63" y="169.74" width="2" height="28.25" fill="#d1d1d1"/><path d="M518.63,211.6a7.31,7.31,0,1,1,7.31-7.3A7.3,7.3,0,0,1,518.63,211.6Zm0-12.61a5.31,5.31,0,1,0,5.31,5.31A5.31,5.31,0,0,0,518.63,199Z" fill="#d1d1d1"/><rect x="442.82" y="124.69" width="151.62" height="6" fill="#e3e3e3"/><path d="M383.37,135.42H316.29V133.2a33.54,33.54,0,0,1,33.54-33.53h0a33.54,33.54,0,0,1,33.54,33.53Z" fill="#f5f5f5"/><rect x="100.91" y="123.57" width="151.62" height="6" fill="#e3e3e3"/></svg>