<svg id="Layer_1" data-name="Layer 1" xmlns="http://www.w3.org/2000/svg" viewBox="0 0 700 600"><title>Corporate Illustrations Pack - Scene 8</title><rect x="257.69" y="175.51" width="92.42" height="110.91" fill="#f5f5f5"/><polygon points="351.11 287.43 256.69 287.43 256.69 175.51 258.69 175.51 258.69 285.43 349.11 285.43 349.11 175.51 351.11 175.51 351.11 287.43" fill="#d1d1d1"/><rect x="252.25" y="172.51" width="103.02" height="6" fill="#e3e3e3"/><rect x="265.96" y="212.26" width="5.86" height="5.86" fill="#d1d1d1"/><rect x="277.71" y="212.26" width="5.86" height="5.86" fill="#d1d1d1"/><rect x="289.46" y="212.26" width="5.86" height="5.86" fill="#d1d1d1"/><rect x="301.21" y="212.26" width="5.86" height="5.86" fill="#d1d1d1"/><rect x="312.95" y="212.26" width="5.86" height="5.86" fill="#d1d1d1"/><rect x="324.7" y="212.26" width="5.86" height="5.86" fill="#d1d1d1"/><rect x="336.45" y="212.26" width="5.86" height="5.86" fill="#d1d1d1"/><rect x="265.96" y="226.73" width="5.86" height="5.86" fill="#d1d1d1"/><rect x="277.71" y="226.73" width="5.86" height="5.86" fill="#d1d1d1"/><rect x="289.46" y="226.73" width="5.86" height="5.86" fill="#d1d1d1"/><rect x="301.21" y="226.73" width="5.86" height="5.86" fill="#d1d1d1"/><rect x="312.95" y="226.73" width="5.86" height="5.86" fill="#d1d1d1"/><rect x="324.7" y="226.73" width="5.86" height="5.86" fill="#d1d1d1"/><rect x="336.45" y="226.73" width="5.86" height="5.86" fill="#d1d1d1"/><rect x="265.96" y="241.19" width="5.86" height="5.86" fill="#d1d1d1"/><rect x="277.71" y="241.19" width="5.86" height="5.86" fill="#d1d1d1"/><rect x="289.46" y="241.19" width="5.86" height="5.86" fill="#d1d1d1"/><rect x="301.21" y="241.19" width="5.86" height="5.86" fill="#d1d1d1"/><rect x="312.95" y="241.19" width="5.86" height="5.86" fill="#d1d1d1"/><rect x="324.7" y="241.19" width="5.86" height="5.86" fill="#d1d1d1"/><rect x="336.45" y="241.19" width="5.86" height="5.86" fill="#d1d1d1"/><rect x="265.96" y="255.66" width="5.86" height="5.86" fill="#d1d1d1"/><rect x="277.71" y="255.66" width="5.86" height="5.86" fill="#d1d1d1"/><rect x="289.46" y="255.66" width="5.86" height="5.86" fill="#d1d1d1"/><rect x="301.21" y="255.66" width="5.86" height="5.86" fill="#d1d1d1"/><rect x="312.95" y="255.66" width="5.86" height="5.86" fill="#d1d1d1"/><rect x="324.7" y="255.66" width="5.86" height="5.86" fill="#d1d1d1"/><rect x="336.45" y="255.66" width="5.86" height="5.86" fill="#d1d1d1"/><rect x="265.96" y="270.12" width="5.86" height="5.86" fill="#d1d1d1"/><rect x="277.71" y="270.12" width="5.86" height="5.86" fill="#d1d1d1"/><rect x="289.46" y="270.12" width="5.86" height="5.86" fill="#d1d1d1"/><rect x="301.21" y="270.12" width="5.86" height="5.86" fill="#d1d1d1"/><rect x="280.57" y="185" width="47" height="2" fill="#d1d1d1"/><rect x="280.57" y="192.89" width="14.75" height="2" fill="#d1d1d1"/><rect x="448.57" y="169.1" width="122.71" height="172.95" fill="#f5f5f5"/><polygon points="130.56 262.49 113.87 210.6 152.71 210.6 161.45 240.57 155.81 262.49 130.56 262.49" fill="#d1d1d1"/><polygon points="144.86 216.14 128.77 216.14 130.8 222.71 146.78 222.71 144.86 216.14" fill="#fff"/><polygon points="147.69 225.24 131.6 225.24 132.12 226.83 148.1 226.83 147.69 225.24" fill="#fff"/><polygon points="113.87 210.6 130.56 262.49 133.77 262.49 116.74 210.6 113.87 210.6" fill="#17212b"/><path d="M572.28,343.05H447.57v-175H572.28Zm-122.71-2H570.28v-171H449.57Z" fill="#d1d1d1"/><polygon points="311.17 519.8 311.17 545.61 330.62 545.61 330.62 511.54 311.17 519.8" fill="#d1d1d1"/><polygon points="532.29 402.38 272.06 402.38 272.06 519.8 272.06 545.61 294.51 545.61 294.51 519.8 532.29 519.8 532.29 402.38" fill="#f5f5f5"/><path d="M520.11,527.56l4.95,9-12.15,9H468.63S467.26,530,483.52,530h16.25l-2.94-7.81,18.49-2.34Z" fill="#1F3C88"/><path d="M522.62,506.21H282.34V413.77H522.62Zm-238.28-2H520.62V415.77H284.34Z" fill="#d1d1d1"/><path d="M432.43,313.09s-4.74,25.55,2.92,51.87S460,455.28,460,455.28l31,74.45h36.64S513.92,473.86,507.37,447s-23.85-95-23.85-95l-28.13-41.29Z" fill="#17212b"/><path d="M511.12,309.7s9-5.83-7-19.42l-3.1,5.78Z" fill="#ffbc9d"/><path d="M412.55,297.86l-2.43,1.58a10.09,10.09,0,0,1-6.07,1.62,212,212,0,0,1-27.37-3.2c-14.46-2.84-12-4.64-19.94-5.16s-10.45-2.38-12.8-5.45-4.55-10.88,0-8.48,9.77,5,9.77,5l3,.67a397.92,397.92,0,0,0,42.39,2.85l6.71-1.37Z" fill="#ffbc9d"/><path d="M441.93,246.44h-4.54s-6.26.33-11.94,8.84-22.71,28.45-22.71,28.45l9.81,18.52,17.32-16.37,15.07-27.76Z" fill="#1F3C88"/><path d="M505.12,304.3s-27.8-20.89-30.12-13.71-3.36,20-3.36,20-1.55,2.2-17.29,4.81-21.92-2.32-21.92-2.32A128.74,128.74,0,0,0,428.81,293c-3.1-12.39-7.23-17.55-1.88-27.52s15-19,15-19h21l6.25,1.87c6.25,1.88,25.92,26.64,35.94,37.57l7.79,7.65Z" fill="#1F3C88"/><path d="M441,527.56l-4.92,18H385.37s.43-15.87,18.62-15.87h26.32Z" fill="#1F3C88"/><path d="M469.93,308.12A96.2,96.2,0,0,1,483.73,337c4.65,16.64-9.8,64.26-13.8,80.13s-7,25.55-7,25.55v10.93a74.46,74.46,0,0,1-2.43,18.85l-15.8,57.31h-31l29.75-216.08Z" fill="#17212b"/><path d="M422.93,464.07c1.43-12,2.87-24,4.4-36s3.08-24,4.62-35.95,3.21-24,4.81-35.93,3.35-23.94,5.17-35.89c-1.35,12-2.85,24-4.33,36s-3.06,24-4.69,35.94-3.19,24-4.88,35.92S424.67,452.11,422.93,464.07Z" fill="#636363"/><path d="M439.87,522.14q2.75-22.54,5.6-45.07c1.87-15,3.88-30,5.82-45s4-30,6-45l3.13-22.49,3.23-22.48L461,364.6l-2.82,22.53c-2,15-3.85,30-5.89,45s-4,30-6.07,45S442,507.15,439.87,522.14Z" fill="#636363"/><path d="M359.32,287.43s-.94-4.74-5.37-6.41a22.24,22.24,0,0,1-6.77-3.84s-1.82.95.56,3.53,4.47,4.66,4.47,4.66l2.58,4.91Z" fill="#ffbc9d"/><path d="M207.43,172.28,212,199.53s2.12,11.14-4.59,13.07-8.77,1.94-8.77,1.94a26.07,26.07,0,0,0,0,13.86,14.9,14.9,0,0,1-14.45,5.11c-9.33-1.81-7.74-6.45-7.74-6.45a167.8,167.8,0,0,0,1.8-20.78c.26-11.35-2.51-29.55,9.07-34S207.43,172.28,207.43,172.28Z" fill="#ffbc9d"/><path d="M194,194.67a3.38,3.38,0,0,0,2.16-3.81c-.53-2.74-.94-6.83.67-9.09,2.58-3.62,7.23-4.13,11.62-5.68s4.13-5.68,2.32-9.81-1-5.42-5.16-6.19-8-3.19-12.65-4.3-10.32-1.38-15.22,2.75l-4.91,4.13s-7,.77-9.29,7,.52,9.55,1,14.45-1.55,5.42,1.54,8.26,3.62,8,4.65,9.8,5.42,10.58,9.81,12.39c0,0,6.19.09,10.06-3.31s7.48-8.38,5.42-11.7-1.47,2.22-5.29-1.76-4.52-8.78-.65-9.55c0,0,4.26-1.16,3.87,6.45Z" fill="#17212b"/><path d="M477.41,343.42a25.36,25.36,0,0,1-6.56.81,27.87,27.87,0,0,1-6.61-.75A22,22,0,0,1,458,341a17.07,17.07,0,0,1-4.89-4.49,28.22,28.22,0,0,0,2.63,1.94c.46.29.89.61,1.36.86l1.41.76a31,31,0,0,0,6,2.18,43.39,43.39,0,0,0,6.34,1A52.38,52.38,0,0,0,477.41,343.42Z" fill="#636363"/><path d="M426.25,283.73a17.48,17.48,0,0,1-2.24-8.34,19.6,19.6,0,0,1,.37-4.38c.19-.7.34-1.43.57-2.12a21.27,21.27,0,0,1,.78-2.06c.33-.66.6-1.34,1-2s.75-1.26,1.14-1.87c.81-1.19,1.61-2.38,2.45-3.55,1.64-2.36,3.3-4.71,5.05-7-1.42,2.51-2.91,5-4.43,7.41a62.55,62.55,0,0,0-4.28,7.37,21.3,21.3,0,0,0-1.84,8.17,21.09,21.09,0,0,0,1.45,8.34Z" fill="#636363"/><rect x="345.52" y="54.4" width="2" height="59.98" fill="#e3e3e3"/><rect x="303.76" y="134.42" width="85.51" height="2" fill="#f2f3f4"/><path d="M346.52,146.72a11.3,11.3,0,1,1,11.3-11.3A11.32,11.32,0,0,1,346.52,146.72Zm0-20.6a9.3,9.3,0,1,0,9.3,9.3A9.32,9.32,0,0,0,346.52,126.12Z" fill="#e3e3e3"/><rect x="439.94" y="127.69" width="140.75" height="42.05" fill="#f5f5f5"/><polygon points="581.69 170.75 438.94 170.75 438.94 127.69 440.94 127.69 440.94 168.75 579.69 168.75 579.69 127.69 581.69 127.69 581.69 170.75" fill="#d1d1d1"/><rect x="509.32" y="169.74" width="2" height="28.25" fill="#d1d1d1"/><path d="M510.32,211.6a7.31,7.31,0,1,1,7.3-7.3A7.31,7.31,0,0,1,510.32,211.6Zm0-12.61a5.31,5.31,0,1,0,5.3,5.31A5.31,5.31,0,0,0,510.32,199Z" fill="#d1d1d1"/><rect x="434.51" y="124.69" width="151.62" height="6" fill="#e3e3e3"/><path d="M380.05,135.42H313V133.2a33.53,33.53,0,0,1,33.54-33.53h0a33.53,33.53,0,0,1,33.53,33.53Z" fill="#f5f5f5"/><polygon points="155.81 529.95 157.65 544.49 122.54 544.49 130.05 529.95 140.44 522.14 155.81 529.95" fill="#17212b"/><path d="M199.05,529.73l-4.7,14.76h54.87s3.5-12.82-18.52-14.76-19.1-14.32-19.1-14.32Z" fill="#17212b"/><path d="M226.48,329.6l11.23,102.8-7,97.33H194.35l-7-156.51L164.55,529.73h-42s21-167.22,33.27-200.13S226.48,329.6,226.48,329.6Z" fill="#1F3C88"/><path d="M328,286.44c-9.84,1.67-11.29,1.46-22.91,6.49-10.76,4.66-35,10-45.64,12.15a9.12,9.12,0,0,1-8.56-2.76l-7-7.55,13.94-17.19,3,3.13a9.14,9.14,0,0,0,7,2.86c28.8-1.09,45.18-1.38,45.18-1.38.7-3.49,6.79-4.77,6.79-4.77l5.69-1.5c.31,3.46-5.11,4.72-5.11,4.72l-.58,1.55s10.91-4.26,13-4.26S332.76,285.63,328,286.44Z" fill="#ffbc9d"/><path d="M465.28,247a40.36,40.36,0,0,0-5.7,6.75c-.89,1.17-1.63,2.45-2.45,3.66s-1.5,2.54-2.21,3.83a106.87,106.87,0,0,0-7.13,16.13,162.43,162.43,0,0,0-5.05,16.94c-.66,2.88-1.26,5.77-1.89,8.65s-1,5.82-1.59,8.73c.35-2.94.75-5.87,1.13-8.81s1.05-5.83,1.63-8.73a143,143,0,0,1,4.84-17.11,98.39,98.39,0,0,1,7.37-16.19c.76-1.28,1.57-2.53,2.35-3.78s1.66-2.47,2.6-3.62A36.92,36.92,0,0,1,465.28,247Z" fill="#636363"/><path d="M138.22,281.86s-9-21.67-11.61-31,1.7-18.07,5.88-22.71c0,0-4.48-2.18-10,5.62l-3.93-11.56s3.18-4.49,1.46-5.94S114.7,222.77,114,229s4.15,50.13,10.86,70.48,21.41,1.26,21.41,1.26Z" fill="#ffbc9d"/><path d="M161.73,227a30.5,30.5,0,0,1,9.14-1.78h40.32s16.33,0,29.23,20.45C257.17,272.24,263.64,280,263.64,280l-19.86,19.47L221.15,271l5.33,58.64H155.81l6.85-30.16-10.36-64S155.52,229.22,161.73,227Z" fill="#17212b"/><polygon points="152.3 235.42 128.12 285.92 149.6 303.49 165.44 272.96 164.13 236 152.3 235.42" fill="#17212b"/><path d="M465.28,247s-12.22,9-20.47,40.26-13,60.46,4.35,67.65S524,366.47,519.9,343.78A237.62,237.62,0,0,0,509,303.87l-13.11,1.4s-1,10.92-19.61,8.85S449.16,295,449.16,295s2.36-29.16,22.23-45.93C471.39,249.09,471.82,246.51,465.28,247Z" fill="#d1d1d1"/><path d="M466.48,271l8.53,8.51c2.83,2.84,5.71,5.61,8.51,8.53a70.32,70.32,0,0,1-9.22-7.82A67.48,67.48,0,0,1,466.48,271Z" fill="#636363"/><path d="M449.16,295A20.91,20.91,0,0,0,455,313.67c4.82,4.75,11.14,7.8,17.67,9.54a44.8,44.8,0,0,0,20.13,1A18.76,18.76,0,0,0,501.9,320a9.48,9.48,0,0,0,2.68-4.18,10.52,10.52,0,0,0,.1-5.05,10.09,10.09,0,0,1,.17,5.12,9.59,9.59,0,0,1-2.59,4.48A19.41,19.41,0,0,1,493,325a39,39,0,0,1-10.33.79,46.53,46.53,0,0,1-10.23-1.62,45.71,45.71,0,0,1-9.64-3.8,31.63,31.63,0,0,1-8.31-6.18,21.58,21.58,0,0,1-5.15-8.93,20.14,20.14,0,0,1-.78-5.11A17.26,17.26,0,0,1,449.16,295Z" fill="#636363"/><path d="M449.16,263.79c5.37-5.5,9.06-4.12,12.16-1S466,275.92,466,275.92s12.31,6.2,20.83,10.59,18.22,5,22.14,12.93,5.47,14.42-9.49,11.58-32.78-21.8-37.94-27.29A52.93,52.93,0,0,1,453.15,271l-4,2.26S443.48,269.59,449.16,263.79Z" fill="#ffbc9d"/><path d="M421.78,218.44s-3-1-5-9-4-18,4-21,13,10,13,10l-9,19Z" fill="#17212b"/><path d="M420.93,194.44v23s0,12,8,15,14,0,14,0a22.58,22.58,0,0,1,0,9l-1,5s1.49,6.1,10,6c7.07-.08,11-6,11-6s-7-8-7-17,1-29,1-29l-15-5Z" fill="#ffbc9d"/><path d="M445.93,215.44s-11-1-21-11-6-18,1-21,11-2,20,0c0,0-2-11,11-11s15,18,3,19c0,0,8,5,8,19s-12,21-12,21-7.5.5-4.5-6.5c0,0-4,0-3-3s3,1,5-6-4-10-6-5S445.93,215.44,445.93,215.44Z" fill="#17212b"/><rect x="532.29" y="402.38" width="38.71" height="117.42" fill="#d1d1d1"/><polygon points="532.29 519.8 532.29 545.61 554.74 545.61 554.74 511.54 532.29 519.8" fill="#d1d1d1"/><rect x="315.66" y="374.51" width="82.3" height="13.94" fill="#1F3C88"/><rect x="373.95" y="378.9" width="24.02" height="5.16" fill="#fff"/><rect x="305.36" y="388.44" width="82.3" height="13.94" fill="#17212b"/><rect x="351.77" y="392.83" width="35.89" height="5.16" fill="#fff"/><path d="M160.06,283.34c-1.55-6-2.66-12-3.65-18.08s-1.81-12.15-2.24-18.3c1.53,6,2.64,12,3.65,18.07S159.64,277.18,160.06,283.34Z" fill="#636363"/><path d="M221.15,271c-2-2.57-4-5.18-5.92-7.81s-3.84-5.28-5.76-7.92a15.15,15.15,0,0,1-1.37-2.07,21.2,21.2,0,0,1-1-2.28,19.08,19.08,0,0,1-1.17-4.82,17.1,17.1,0,0,1,.25-4.95,15.78,15.78,0,0,1,1.82-4.57,18,18,0,0,0-1.41,4.64,16.78,16.78,0,0,0,0,4.8,19.18,19.18,0,0,0,1.22,4.63,21.45,21.45,0,0,0,1,2.17,22.24,22.24,0,0,0,1.32,2c1.87,2.68,3.78,5.33,5.6,8S219.38,268.21,221.15,271Z" fill="#636363"/><path d="M175.59,372.64c2-.14,3.92-.2,5.89-.25s3.92-.05,5.88-.08,3.92,0,5.88.08,3.93.11,5.89.25c-2,.13-3.92.19-5.89.24s-3.92.05-5.88.08-3.92,0-5.88-.07S177.55,372.77,175.59,372.64Z" fill="#636363"/><path d="M213.49,329.6l2.36,12.78,2.29,12.8,4.44,25.6L231.19,432v.08l-3.71,48.23c-1.21,16.08-2.57,32.15-3.85,48.22,1.13-16.08,2.18-32.17,3.39-48.25l3.51-48.25v.08l-8.77-51.23-4.25-25.64-2.06-12.83Z" fill="#636363"/><path d="M227,333.91a8.94,8.94,0,0,1-1.51,4.64,15.78,15.78,0,0,1-3.28,3.68A23.19,23.19,0,0,1,218.1,345c-.73.35-1.46.73-2.2,1.06s-1.51.59-2.28.86c.7-.42,1.42-.8,2.12-1.19l2.07-1.24a35.93,35.93,0,0,0,3.84-2.84,19.67,19.67,0,0,0,3.26-3.44,12.67,12.67,0,0,0,1.23-2A7.83,7.83,0,0,0,227,333.91Z" fill="#636363"/><path d="M462.54,461.09c.15-3.08.23-6.15.25-9.23a84.59,84.59,0,0,0-.36-9.17h0v-.1l0-.08q5.88-19.92,11.23-40c1.77-6.7,3.49-13.41,5.08-20.15S481.87,368.83,483,362c-1.08,6.85-2.53,13.63-4,20.39s-3.15,13.5-4.84,20.22q-5.07,20.16-10.75,40.17v-.19h0a84.53,84.53,0,0,1-.13,9.29C463.11,455,462.85,458,462.54,461.09Z" fill="#636363"/><ellipse cx="481.98" cy="321.73" rx="2.67" ry="1.42" fill="#f5f5f5"/></svg>