<svg id="Layer_1" data-name="Layer 1" xmlns="http://www.w3.org/2000/svg" viewBox="0 0 700 600"><title>Corporate Illustrations Pack - Scene 3</title><path d="M464.15,528.66l4.51,15.92H436.27s-6.71-14.37,8.78-19S464.15,528.66,464.15,528.66Z" fill="#1F3C88"/><rect x="508.74" y="127.69" width="140.75" height="42.05" fill="#f5f5f5"/><polyline points="87.13 126.57 87.13 308.12 227.88 308.12 227.88 126.57" fill="#f5f5f5"/><rect x="81.69" y="123.57" width="151.62" height="6" fill="#e3e3e3"/><polygon points="228.88 309.12 86.13 309.12 86.13 126.57 88.13 126.57 88.13 307.12 226.88 307.12 226.88 126.57 228.88 126.57 228.88 309.12" fill="#e3e3e3"/><path d="M119.86,183.62a12.39,12.39,0,0,1-3.27-.43l1.34-5a7.8,7.8,0,0,0,1.93.25A7.42,7.42,0,0,0,124,164.85l2.91-4.31a12.62,12.62,0,0,1-7,23.08Z" fill="#e4e4e4"/><path d="M119,193.21a22.79,22.79,0,0,1-22.76-22.77h5A17.76,17.76,0,1,0,119,152.69v-5a22.77,22.77,0,1,1,0,45.53Z" fill="#e4e4e4"/><path d="M119.11,188.11a17.56,17.56,0,0,1-14.94-8.26l4.24-2.67a12.65,12.65,0,1,0,6.68-18.73l-1.59-4.76a17.67,17.67,0,1,1,5.61,34.42Z" fill="#d1d1d1"/><rect x="98.04" y="213.87" width="41.87" height="2" fill="#e3e3e3"/><rect x="98.04" y="219.06" width="41.87" height="2" fill="#e3e3e3"/><rect x="98.04" y="224.24" width="17.18" height="2" fill="#e3e3e3"/><rect x="127.49" y="230.45" width="12.42" height="2" fill="#e3e3e3"/><rect x="133.7" y="235.31" width="6.21" height="2" fill="#e3e3e3"/><rect x="156.5" y="174.39" width="2" height="18.99" fill="#e3e3e3"/><rect x="166.05" y="168.27" width="2" height="25.1" fill="#e3e3e3"/><rect x="175.6" y="162.38" width="2" height="31" fill="#e3e3e3"/><rect x="185.15" y="155.4" width="2" height="37.97" fill="#e3e3e3"/><rect x="194.7" y="151.51" width="2" height="41.87" fill="#e3e3e3"/><rect x="204.24" y="155.4" width="2" height="37.97" fill="#e3e3e3"/><rect x="213.79" y="145.72" width="2" height="47.66" fill="#e3e3e3"/><polygon points="158.05 167.09 156.96 165.41 195.7 140.28 205.02 146.34 214 134.8 215.58 136.03 205.47 149.01 195.69 142.67 158.05 167.09" fill="#e3e3e3"/><polygon points="228.88 309.12 86.13 309.12 86.13 126.57 88.13 126.57 88.13 307.12 226.88 307.12 226.88 126.57 228.88 126.57 228.88 309.12" fill="#d1d1d1"/><path d="M119.86,183.62a12.39,12.39,0,0,1-3.27-.43l1.34-5a7.8,7.8,0,0,0,1.93.25A7.42,7.42,0,0,0,124,164.85l2.91-4.31a12.62,12.62,0,0,1-7,23.08Z" fill="#e4e4e4"/><path d="M119,193.21a22.79,22.79,0,0,1-22.76-22.77h5A17.76,17.76,0,1,0,119,152.69v-5a22.77,22.77,0,1,1,0,45.53Z" fill="#e4e4e4"/><path d="M119.11,188.11a17.56,17.56,0,0,1-14.94-8.26l4.24-2.67a12.65,12.65,0,1,0,6.68-18.73l-1.59-4.76a17.67,17.67,0,1,1,5.61,34.42Z" fill="#d1d1d1"/><path d="M191.76,248.31s-1-8.77,2.06-8.51l3.62,5.93Z" fill="#ffbc9d"/><path d="M110,254.51s9.21-1.7,13.85,2S145.31,277,145.31,277l-19.1,21.55-5.16,14.06.52,8.1-34.84-4.74s-10.08-26.48-9.55-39,14.6-20.46,14.6-20.46S106.52,260.44,110,254.51Z" fill="#1F3C88"/><rect x="156" y="174.39" width="3" height="18.99" fill="#d1d1d1"/><rect x="165.55" y="168.27" width="3" height="25.1" fill="#d1d1d1"/><rect x="175.1" y="162.38" width="3" height="31" fill="#d1d1d1"/><rect x="184.65" y="155.4" width="3" height="37.97" fill="#d1d1d1"/><rect x="194.2" y="151.51" width="3" height="41.87" fill="#d1d1d1"/><rect x="203.74" y="155.4" width="3" height="37.97" fill="#d1d1d1"/><rect x="213.29" y="145.72" width="3" height="47.66" fill="#d1d1d1"/><polygon points="158.32 167.51 156.69 164.99 195.7 139.69 204.91 145.67 213.61 134.5 215.98 136.34 205.58 149.68 195.69 143.26 158.32 167.51" fill="#d1d1d1"/><polygon points="161.89 368.57 129.37 545.61 134.53 545.61 185.63 368.57 161.89 368.57" fill="#17212b"/><polygon points="546.36 368.57 578.88 545.61 573.72 545.61 522.62 368.57 546.36 368.57" fill="#17212b"/><rect x="78.25" y="354.93" width="522.29" height="18.29" fill="#2f4559"/><path d="M117.25,527.56l4.93,18h50.75s-.43-15.87-18.63-15.87H128Z" fill="#1F3C88"/><path d="M50,529.73,44.23,545.6H95s-.43-15.87-18.62-15.87Z" fill="#1F3C88"/><path d="M244.09,453.73l-22.55,3.36,17.9,49.24s14.77-5.83,8.55-22.93l-5-13.78,6.54-5.69Z" fill="#2f4559"/><path d="M130.73,231.24s3-1,5-9,4-18-4-21-13,10-13,10l9,19Z" fill="#17212b"/><path d="M131.73,207.24v23s0,12-8,15-14,0-14,0,.4,1.23,1.4,6.23a16.43,16.43,0,0,0,3.21,7.43,24.37,24.37,0,0,1-13.85,3.87,8.94,8.94,0,0,1-8.71-6.27,21.93,21.93,0,0,0,5-14.26c0-9-1-29-1-29l15-5Z" fill="#ffbc9d"/><rect x="168.26" y="300" width="74.99" height="45" fill="#f2f3f4"/><path d="M241.75,301.51v42h-72v-42h72m3-3h-78v48h78v-48Z" fill="#17212b"/><rect x="168.26" y="348" width="89.31" height="4.49" fill="#f2f3f4"/><path d="M256.07,349.51V351H169.76v-1.48h86.31m3-3H166.76V354h92.31v-7.48Z" fill="#17212b"/><path d="M106.73,228.24s11-1,21-11,6-18-1-21-11-2-20,0c0,0,2-11-11-11s-15,18-3,19c0,0-8,5-8,19s12,21,12,21,7.5.5,4.5-6.5c0,0,4,0,3-3s-3,1-5-6,4-10,6-5S106.73,228.24,106.73,228.24Z" fill="#17212b"/><path d="M397.69,527.56l3.68,17H355.15s-4.84-17,16.09-17Z" fill="#1F3C88"/><polygon points="586.15 428.48 605.25 544.61 610.92 544.61 602.15 420.1 586.15 428.48" fill="#17212b"/><polygon points="520.34 428.48 501.25 544.61 495.57 544.61 504.34 420.1 520.34 428.48" fill="#17212b"/><path d="M485.92,431.39h0a11,11,0,0,1,11-11h92.29c.61,0,14.82-.31,22.9-17.49s23.06-52.07,30.73-70a18.56,18.56,0,0,1,17.08-11.29h0c-.24.58-26.63,62.17-37.86,86s-32,23.81-32.9,23.8Z" fill="#2f4559"/><rect x="353.69" y="54.4" width="2" height="59.98" fill="#e3e3e3"/><path d="M511.59,525.48l4.13,19.12H468.37s-5.43-19.12,18.05-19.12Z" fill="#2f4559"/><rect x="311.94" y="134.42" width="85.51" height="2" fill="#f2f3f4"/><path d="M354.69,146.72a11.3,11.3,0,1,1,11.3-11.3A11.31,11.31,0,0,1,354.69,146.72Zm0-20.6a9.3,9.3,0,1,0,9.3,9.3A9.31,9.31,0,0,0,354.69,126.12Z" fill="#e3e3e3"/><polygon points="650.49 170.75 507.74 170.75 507.74 127.69 509.74 127.69 509.74 168.75 648.49 168.75 648.49 127.69 650.49 127.69 650.49 170.75" fill="#d1d1d1"/><rect x="578.12" y="169.74" width="2" height="28.25" fill="#d1d1d1"/><path d="M579.12,211.6a7.31,7.31,0,1,1,7.3-7.3A7.31,7.31,0,0,1,579.12,211.6Zm0-12.61a5.31,5.31,0,1,0,5.3,5.31A5.31,5.31,0,0,0,579.12,199Z" fill="#d1d1d1"/><rect x="503.31" y="124.69" width="151.62" height="6" fill="#e3e3e3"/><path d="M388.23,135.42H321.15V133.2a33.54,33.54,0,0,1,33.54-33.53h0a33.54,33.54,0,0,1,33.54,33.53Z" fill="#f5f5f5"/><rect x="81.69" y="123.57" width="151.62" height="6" fill="#e3e3e3"/><path d="M197.44,258.24c-7.74,5.47-15.37,15.71-23.63,26.29-5.91,7.58-15.39,15.65-20.3,19.63a4.69,4.69,0,0,1-6.11-.19l-11.05-10.15,10.71-13,5,4.13s11.07-8.93,24.49-21.06S197.44,258.24,197.44,258.24Z" fill="#ffbc9d"/><path d="M166.76,260.83c7.41-5.38,3.9-8.56,3.9-8.56a76,76,0,0,1-9.76,6.57l-3.4,5.26,3.4,3,9.12-1.55Z" fill="#ffbc9d"/><path d="M272.18,504.06l-4.8,13.67,16.51,26.87h37.94s-.12-16-21.87-15.51L284.15,502Z" fill="#2f4559"/><polygon points="166.76 268.7 166.76 276.96 198.34 261.77 198.34 242.38 166.76 257.93 166.76 268.7" fill="#17212b"/><path d="M177.57,268.45c-3.87,2.06-13.17,4.38-18.07,5.93l-31.69,39.55a5.28,5.28,0,0,1-6.42,1.47l-10.27-4.89L119.59,293l3.78,2.07s20.9-20.28,29.42-28.39a9.32,9.32,0,0,1,5.94-7,21.8,21.8,0,0,0,3.14-1.43c-1.2,4.53,6.41,3.24,12.34,2.72s7.49-2.58,7.74-.25A7.65,7.65,0,0,1,177.57,268.45Z" fill="#ffbc9d"/><path d="M199.25,244.25s-5.68-.06-5.42,4.32,1.8,8.52,5.42,9.29,3.61-4.9,3.61-9A4.32,4.32,0,0,0,199.25,244.25Z" fill="#ffbc9d"/><path d="M373.38,322.19l-14.55,111.1,6.84,95h35.45L408,375.56l-.48,10.51L428.2,528.25h43s-24.21-166.89-36.13-199S373.38,322.19,373.38,322.19Z" fill="#17212b"/><path d="M91.78,256.5s-18.59,3.43-16.59,18.14,36.56,37.93,36.56,37.93l12.14-22.71L95.5,267.07Z" fill="#1F3C88"/><path d="M123.89,289.86c-6.37-4.86-12.68-9.81-19-14.72-3.16-2.46-6.34-4.9-9.42-7.47a17.47,17.47,0,0,0-5-3.05,7.85,7.85,0,0,0-5.74-.31,6.58,6.58,0,0,1,2.92-.8,9.57,9.57,0,0,1,3,.47,17.08,17.08,0,0,1,5.39,2.91c3.17,2.45,6.24,5,9.32,7.59C111.57,279.61,117.76,284.69,123.89,289.86Z" fill="#636363"/><path d="M86.73,315.93s-12.45,17.48-16.48,39S58.47,440.7,58.47,440.7L40.08,530.12H75s14.79-53.55,19-73S114.21,354,114.21,354l3-33.91Z" fill="#17212b"/><path d="M116.28,259.67c.92,1.16,1.9,2.26,2.9,3.34s2,2.17,3,3.25c2,2.15,4,4.36,5.86,6.69a18,18,0,0,1,2.42,3.85,9.5,9.5,0,0,1,.41,4.59,26.48,26.48,0,0,1-2.75,8.47c.47-1.4.92-2.81,1.25-4.24a24.38,24.38,0,0,0,.71-4.31,9.36,9.36,0,0,0-.5-4.14,19.11,19.11,0,0,0-2.32-3.62c-1.75-2.34-3.75-4.52-5.63-6.8A58.5,58.5,0,0,1,116.28,259.67Z" fill="#636363"/><polygon points="262.47 506.33 298.08 506.33 333.18 424.42 343.5 322.56 300.15 343.28 262.47 506.33" fill="#1F3C88"/><path d="M99.46,397l2,133.16h38.71l-3.8-105.7a433.86,433.86,0,0,0-4.62-55.85,430,430,0,0,0-10.16-47.9l-14.32-1.95Z" fill="#17212b"/><path d="M324.09,250.12s.58,5.81,7.8,6.39,11.36-5.42,11.36-5.42a32.69,32.69,0,0,1-2.58-15.68s3.87,1.29,10.83,1,9.62-7,9.33-12.64.27-26.07-5.05-29.68-33.18,17.55-33.18,17.55l1.49,15Z" fill="#ffbc9d"/><path d="M303.76,315.93s-9.25,10.32-6.17,27.35S311,399,311,399l-75.48,44.91,14,31.48,100.13-49-3.28-107.66Z" fill="#1F3C88"/><path d="M287.5,275.15s-.77-6.45,1-10.58,8-4.38,7.74-8.06-1-5.61,4.9-12.46,5.42-7.09,4.39-11.74-1.29-5.67,4.9-10.83,6.71-11.1,7.23-17.18,4.39-7.86,7-11,8.77-4.91,17.17-7.23,13.79.52,17.15,5.68,1.8,7.48-2.07,10.58-3.35,7.48-8.25,10.84-9,7.74-11.24,6.45-4.25-7.48-7.29-3.36,3.3,8.52,6.14,9.81-.26,3.61-2.07,8.26.78,6.19-1.8,12.39-3.87,5.42-9.55,5.67Z" fill="#17212b"/><path d="M366,254.71s-6.74-1.47-11.28-2.67-7-2.91-11.95-2.15c0,0,.89,1.46-5,4S324.67,252,324.67,252s-2.58-3.2-9.55-.95-41.42,38.26-42.39,41-1,7.37,5.32,12.39,42.89,27.83,42.89,27.83l20.57-11.61L366,271.73Z" fill="#2f4559"/><path d="M418.47,241.74c2.31,2.11,12.78,1.93,17.81,5.89s29,47.91,31.35,58S465,323.42,453.7,320.67c-8.13-2-14.54-8.1-14.54-8.1v14.71c1.34,7-3.27,8-3.27,8H371.63c-2.32-3.59-3.09-11.11-1.54-27.89s.77-27,.77-27L349.65,305.6l11.18,20.91-15.91,2.76s3.1,3-12.77-8.6S326,299.44,326,299.44s24-27.9,31-34.87,15.11-17.8,19-18.58,11.61-4.25,11.61-4.25l4.57-5.19s3.18,4,10.92,4,12-6.77,12-6.77S416.14,239.61,418.47,241.74Z" fill="#f5f5f5"/><path d="M420.79,296.7c-2.32-1.16-3.67-.39-7-2.13s-3.29-4.45-6-5.61-7.55-2.13-10.65-3.48-2.13-2.52,1.16-2.52,5.81.77,7.36,0-1.16-2.9-3.87-3.68-8.71-4.13-8.71-4.13-2.91-4,1-3,12.34,4.26,12.34,4.26a38.59,38.59,0,0,1-4-6.58c-1-2.52-3.49-10.07-1.16-8.13s4.25,6,6,8.71,3.09,4.77,3.09,4.77-1.16-6.13-1.74-8.84-1-7.54.39-7.54,2.9,5.61,4.84,9.48,2.51,7.74,4.84,8.32,3.87-1.55,5-3.67,3.29-4.46,4.64-4.46c0,0,1.55-.19,0,3.1s-3.29,7.36-2.9,9.87a54.22,54.22,0,0,0,1.94,7Z" fill="#ffbc9d"/><path d="M420.79,236.55a17.58,17.58,0,0,0,8.24,1.7c5.31,0,8.56,1,10.13,5s0,10.27-3.07,13.27-7.34,3.18-7.06-1.46-1.27-11-1.27-11A8.43,8.43,0,0,0,424,242.7C420.1,242.12,420.79,236.55,420.79,236.55Z" fill="#ffbc9d"/><path d="M381.89,192.77v28.64s-.19,11.42,12.39,12.39l-1,3.68a14.65,14.65,0,0,0,9.68,4.25c6,.2,12-6.77,12-6.77v-9.83l8.9-20.83-6.39-11.53-14.61-7.47-14,3.6Z" fill="#ffbc9d"/><path d="M390.6,179.6c-6.69,2-13.16,5.62-11.42,10.46s5.61,9.09,13.94,5.22,12.38-5.42,14.32.2,1.16,15.12,1.16,15.12,3.49,1.33,5-4.29,7.06-4.64,7.11-.77-1.88,9.48-5.56,10.26-1.35,1-1.16,4.64-1.16,9.51.77,9.79,2.23-6.88,6-11.92,10.3-19.74,3.14-30-12.39-8.71-12.39-8.71S400.86,176.51,390.6,179.6Z" fill="#17212b"/><path d="M477.13,320.67s-4.59,73.87-3,111.73,4.77,95.16,4.77,95.16h33.42l6.3-52.15-11-97.93,1-45.2-18.58-3Z" fill="#1F3C88"/><path d="M540,525.48s-12.39,7.45-6.58,19h21l24.63-17.69L555.5,502Z" fill="#2f4559"/><path d="M280,417.45q7.62-4.8,15.32-9.49t15.42-9.33l-.21.51c-1.14-4.27-2.32-8.53-3.39-12.82l-3.24-12.87c-1.06-4.29-2.05-8.6-3-12.92q-.74-3.24-1.37-6.49c-.44-2.17-.84-4.35-1.13-6.54.85,4.34,2,8.61,3,12.9l3.31,12.84,6.69,25.67.09.33-.3.18q-7.75,4.59-15.56,9.1T280,417.45Z" fill="#636363"/><path d="M272.18,464.32c4.54-2.45,9.13-4.81,13.73-7.14s9.22-4.61,13.84-6.91,9.27-4.51,13.93-6.71l7-3.28c2.35-1.06,4.69-2.15,7.06-3.17-2.27,1.23-4.56,2.41-6.84,3.62L314,444.26c-4.6,2.33-9.23,4.61-13.85,6.89s-9.27,4.51-13.94,6.7S276.9,462.23,272.18,464.32Z" fill="#636363"/><path d="M420.74,299.44c1.51,1.15,3.06,2.23,4.58,3.34l4.61,3.24c3.09,2.16,6.2,4.26,9.23,6.55a56,56,0,0,1-5-2.65q-2.44-1.44-4.77-3.08A51.54,51.54,0,0,1,420.74,299.44Z" fill="#636363"/><path d="M460,302.25c-2.4-1.35-4.8-2.67-7.22-3.95s-4.85-2.55-7.3-3.75-4.92-2.41-7.4-3.56c-1.23-.59-2.49-1.15-3.74-1.7s-2.52-1.09-3.76-1.69a76.44,76.44,0,0,1,7.81,2.67c2.57,1,5.07,2.15,7.53,3.39s4.88,2.55,7.23,4A73.12,73.12,0,0,1,460,302.25Z" fill="#636363"/><path d="M385,242.82a13.06,13.06,0,0,0,2.85,2.44c1,.7,2.12,1.34,3.21,2,2.19,1.22,4.45,2.32,6.74,3.35h0l-.63.15c1.1-1.4,2.14-2.86,3.12-4.35a44,44,0,0,0,2.71-4.65,42.68,42.68,0,0,1-2.28,4.9c-.85,1.6-1.75,3.15-2.74,4.69l-.23.36-.39-.21h0c-2.23-1.19-4.43-2.44-6.56-3.82-1.06-.69-2.1-1.41-3.1-2.19A13.25,13.25,0,0,1,385,242.82Z" fill="#636363"/><path d="M420.92,242.83a3.2,3.2,0,0,1-.75,1.56,11.93,11.93,0,0,1-1.18,1.28,24.93,24.93,0,0,1-2.73,2.19,62.13,62.13,0,0,1-6,3.61l-.36.2-.27-.35h0c-1-1.54-1.89-3.09-2.74-4.69a44.44,44.44,0,0,1-2.28-4.9,45.82,45.82,0,0,0,2.71,4.65c1,1.49,2,3,3.12,4.35h0l-.63-.15a60.11,60.11,0,0,0,6.14-3.14,23,23,0,0,0,2.83-2,10.68,10.68,0,0,0,1.25-1.17A3.2,3.2,0,0,0,420.92,242.83Z" fill="#636363"/><ellipse cx="341.73" cy="329.27" rx="22.45" ry="5.57" fill="#17212b"/><path d="M442.34,142.51c-1.55-5.68-3.18-12.91-3.18-12.91s-2.24,0-3,5.82a28.28,28.28,0,0,0,0,9.15s-2.24,5.16-.34,8.78a96.91,96.91,0,0,1,4,9.29l10.82-3.87Z" fill="#ffbc9d"/><path d="M426.55,143.28c.31-4.13-.27-14.45,4-12.38s16.68,12.38,16.68,12.38l3.35,15.49-13.42-10.05-4.32-9.57s-1.1,3.1-2.91,4.39A2.69,2.69,0,0,1,426.55,143.28Z" fill="#ffbc9d"/><path d="M534.47,329.27s5.16,10.18,0,34.8-11.23,73-11.23,73l43.88,69.22L540,525.48s-34.45-48-44.26-61.16-22.71-27.62-16.51-61.17,14.94-73.88,14.94-73.88Z" fill="#1F3C88"/><path d="M435.05,162.64l19.42-6.07,9.68,43.36S492,232.42,495.5,234s19,7.76,19,7.76L540,249.09s6.65,1.55,10.87,15.48,16.23,53.07,16.23,53.07.57,12.14-21.2,17.66-46.74,12.2-46.74,12.2V332.28l-23.39-14.13s4.62-43.13,4.62-50.87-37.59-53.76-37.59-53.76Z" fill="#17212b"/><path d="M532.28,277.73c.84,5.46,1.94,10.87,3.26,16.22a120.15,120.15,0,0,0,5,15.73h0l.19.51-.51.15q-9.95,2.93-19.86,5.94c-6.6,2-13.21,4-19.75,6.28,6.48-2.4,13.05-4.57,19.6-6.76s13.13-4.31,19.71-6.42l-.32.66h0a122.4,122.4,0,0,1-4.5-16C533.89,288.66,533,283.21,532.28,277.73Z" fill="#636363"/><path d="M499.18,328c-3.09-.67-8.32-6.15-10.84-7.28s-3.29-1.32-10.84-2.29-8.51-1.61-4.83,2.29,6.58,6.23,9.29,10.1,11.42,6.94,17.22,4.53Z" fill="#ffbc9d"/><path d="M490.52,346.51c-2.6,13.32-5.19,26.64-7.65,40-1.22,6.68-2.42,13.36-3.47,20.05-.53,3.35-1,6.7-1.31,10.06a87.82,87.82,0,0,0-.4,10.11,35.35,35.35,0,0,0,1.71,9.84,48,48,0,0,0,4.16,9.15c1.66,2.93,3.63,5.68,5.53,8.5l5.82,8.35c7.8,11.1,15.75,22.1,23.67,33.13q-12.32-16.21-24.27-32.7l-5.95-8.27c-1.95-2.78-4-5.53-5.67-8.5a49.36,49.36,0,0,1-4.31-9.33,35,35,0,0,1-1.74-10.14,89,89,0,0,1,.45-10.22c.33-3.41.87-6.77,1.44-10.12,1.14-6.7,2.42-13.36,3.73-20Q486.18,366.4,490.52,346.51Z" fill="#636363"/><path d="M325.44,260.7a12.6,12.6,0,0,1-.34,11.89,38.9,38.9,0,0,1-3.53,5c-1.25,1.59-2.55,3.14-3.85,4.68-2.59,3.1-5.29,6.09-8,9.07s-5.48,5.92-8.28,8.82l7.83-9.21c2.62-3.06,5.19-6.16,7.77-9.25,1.28-1.55,2.56-3.11,3.78-4.69a43.85,43.85,0,0,0,3.41-4.89A14.26,14.26,0,0,0,325.44,260.7Z" fill="#636363"/><path d="M343.25,251.09a64.1,64.1,0,0,1,6.09,6,66.72,66.72,0,0,1,5.35,6.69,65.31,65.31,0,0,1-6.09-6A63,63,0,0,1,343.25,251.09Z" fill="#636363"/><rect x="320.94" y="307.41" width="41.15" height="24.87" fill="#f2f3f4"/><path d="M276,296.7c2.82-5.63,13.94-5.35,19.74,2.74s22.45,24.62,22.84,26.81,9.68,1.81,17.81,3,12.38.77,8.51,3.87-15,6.19-20.83,5.42-21.36-10.61-27.94-15.95S272.92,302.9,276,296.7Z" fill="#ffbc9d"/><ellipse cx="341.51" cy="307.41" rx="20.57" ry="5.16" fill="#e4e4e4"/><path d="M508.86,193.77l-7.55,25.55s-4.26,10.45,7.55,17a11.59,11.59,0,0,1-3.33,4.46,17.09,17.09,0,0,0,9.52,6.19,24.3,24.3,0,0,0,12.2,0s-1.75-12.77,4.45-17.81,19-6.87,12.39-22.4-24.39-15.92-25-15.73S508.86,193.77,508.86,193.77Z" fill="#ffbc9d"/><path d="M524.92,174.42c-3.24-.68-6-2.32-7.93,1.16s-.2,5.23-2.13,6.58-5.81,0-7.36,4.26-2.9,5.42-1.16,7.93,1,2.71,1.36,5,2.9,3.87,6.39,3.09,4.25-1.93,9.09-3.29,6.78-1.35,6.78,1.36,3.67,4.35,2.9,6.24-4.26,4.08-3.48,6.37,1.35-2.16,6.19-3.13,7.35,3.19,5,6.05-6,5-7.93,3.82-2.71,1.74-2.91,4.26-3.09,3.68-1.74,7.74.19,6.58,6.58,2.71,12-4.84,16.26-13.93,4.84-15.68,1.35-22.45-2.32-14.91-11.8-18.78S528.23,175.11,524.92,174.42Z" fill="#17212b"/><polygon points="528.58 175.24 554.49 202.44 572.92 153.86 528.58 175.24" fill="#1F3C88"/><polygon points="398.97 174.82 432.86 191.04 432.81 139.07 398.97 174.82" fill="#1F3C88"/><path d="M99.93,428.18c.86-5.76,1.81-11.51,2.77-17.26s2-11.48,3-17.22l3-17.21,1.54-8.6c.54-2.86,1-5.73,1.51-8.61-.53,5.81-1.4,11.58-2.26,17.34s-1.87,11.51-2.88,17.25-2,11.47-3.19,17.18S101.17,422.49,99.93,428.18Z" fill="#636363"/><path d="M353.23,333.32s.43-6.36,2.83-7.38,4.45.11,6.61,1.24c2.69,1.39,4.14,2.34-.34,5.65-6.35,4.69-8.82,2.7-10.77,2.68a19.31,19.31,0,0,0-4.42.67S347.85,331.25,353.23,333.32Z" fill="#ffbc9d"/><rect x="341.02" y="305.03" width="1.41" height="3.51" fill="#636363"/><path d="M341.78,305.88s-4.84-.76,0-7.06C341.78,298.82,346.39,304.41,341.78,305.88Z" fill="#636363"/><polygon points="459.99 520.83 455.99 499.73 452.09 478.61 444.48 436.34 437.09 394.02 433.47 372.86 429.95 351.67 433.93 372.77 437.83 393.89 445.45 436.16 452.87 478.47 456.48 499.64 459.99 520.83" fill="#636363"/><path d="M413.42,340.19a27.24,27.24,0,0,0,4.27,4,40.85,40.85,0,0,0,4.86,3.16c.87.43,1.7.92,2.6,1.28.44.2.87.43,1.32.61l1.36.54c.89.38,1.83.65,2.74,1s1.87.57,2.81.91c-1-.11-2-.26-2.94-.42s-1.94-.42-2.88-.74a30.7,30.7,0,0,1-5.49-2.31,27.63,27.63,0,0,1-4.87-3.44A18,18,0,0,1,413.42,340.19Z" fill="#636363"/><path d="M408.89,395.67c-.73-2.84-1.37-5.71-2-8.57s-1.16-5.75-1.74-8.62-1.07-5.76-1.54-8.66l-.67-4.35c-.19-1.45-.41-2.9-.57-4.36.39,1.42.72,2.85,1.07,4.27l.95,4.29c.62,2.87,1.19,5.74,1.72,8.63s1.06,5.76,1.51,8.66S408.54,392.75,408.89,395.67Z" fill="#636363"/></svg>