<svg id="Layer_1" data-name="Layer 1" xmlns="http://www.w3.org/2000/svg" viewBox="0 0 700 600"><title>Corporate Illustrations Pack - Scene 4</title><rect x="393.24" y="54.71" width="2" height="59.98" fill="#e3e3e3"/><rect x="351.49" y="119.73" width="85.51" height="2" fill="#f2f3f4"/><path d="M394.24,132a11.3,11.3,0,1,1,11.31-11.3A11.31,11.31,0,0,1,394.24,132Zm0-20.6a9.3,9.3,0,1,0,9.31,9.3A9.31,9.31,0,0,0,394.24,111.43Z" fill="#e3e3e3"/><path d="M427.78,120.73H360.71v-2.21A33.54,33.54,0,0,1,394.24,85h0a33.54,33.54,0,0,1,33.54,33.54Z" fill="#f5f5f5"/><rect x="205.87" y="163.81" width="140.75" height="110.91" fill="#f5f5f5"/><polygon points="347.62 275.73 204.87 275.73 204.87 163.81 206.87 163.81 206.87 273.73 345.62 273.73 345.62 163.81 347.62 163.81 347.62 275.73" fill="#d1d1d1"/><rect x="200.43" y="160.81" width="151.62" height="6" fill="#e3e3e3"/><polygon points="323.65 328.14 197.33 328.14 197.33 519.3 197.33 545.11 211.53 545.11 211.53 519.3 323.65 519.3 323.65 328.14" fill="#f5f5f5"/><rect x="314.16" y="328.14" width="38.71" height="191.16" fill="#d1d1d1"/><path d="M402.82,195.63s0,13.87,1.54,21.87,8.52,10.68,14.46,10l5.93-.7a19.58,19.58,0,0,1-1.29,13.46l18.84-2.36a65.51,65.51,0,0,1-5.16-14.19c-1.55-7.23-12-26.53-12-26.53l-18-5.21h-4.38Z" fill="#ffbc9d"/><path d="M413.91,210.41S398,197.63,402.1,184.09s25.36-5.42,25.36-5.42-2.32-9.29,8.9-11.62,18.2,16.65,5.42,18.2c0,0,8.69,10.06,6.86,22.06s-7.24,20.9-13.44,20.13-9.95-2.81-17-11.23c0,0,3.49,3.62,5.29-4.38s-7.22-7.49-7.48-4.65a9.94,9.94,0,0,0,.77,4.91Z" fill="#17212b"/><path d="M411,525.79l4.13,19.13H363.31s-5.43-19.13,18.06-19.13Z" fill="#1F3C88"/><path d="M462.27,525.79l4.13,19.13H414.54s-5.43-19.13,18-19.13Z" fill="#1F3C88"/><polygon points="555.52 545.29 519.65 545.29 505.91 486.02 569.26 486.02 555.52 545.29" fill="#2f4559"/><rect x="501.22" y="479.23" width="72.73" height="17.82" fill="#2f4559"/><path d="M508.47,497.05c2.43-.16,4.85-.23,7.28-.35l7.28-.19c4.85-.13,9.7-.15,14.56-.17s9.7,0,14.56.17l7.27.19c2.43.12,4.86.19,7.28.35-2.42.16-4.85.23-7.28.35l-7.27.2c-4.86.13-9.71.14-14.56.16s-9.71,0-14.56-.16l-7.28-.2C513.32,497.28,510.9,497.21,508.47,497.05Z" fill="#636363"/><path d="M543.88,289.08s.51,4.91-3.87,18.58,3.35,39.56,16,44.56,22.71-9.72,19.87-24.43-12.39-23-19.62-29.16A131.59,131.59,0,0,0,543.88,289.08Z" fill="#1F3C88"/><path d="M551.1,300.44a100.48,100.48,0,0,1,7.46,21.39,102.86,102.86,0,0,1,2.77,22.51c-.05,1.9,0,3.8-.11,5.69s-.25,3.78-.45,5.67l-.81,5.63-1,5.58c-1.43,7.44-3.15,14.81-4.84,22.18a199.45,199.45,0,0,0-4.15,22.26,131,131,0,0,0-.62,22.58l.74,11.32c.21,3.78.41,7.57.48,11.36s.11,7.59,0,11.39c-.08,1.9-.18,3.8-.36,5.7a38.17,38.17,0,0,1-.88,5.75L547.9,479a37.36,37.36,0,0,0,.87-5.45c.19-1.87.31-3.75.39-5.63.18-3.76.19-7.53.13-11.3s-.21-7.55-.4-11.32L548.25,434a130.78,130.78,0,0,1,.8-22.73,200.33,200.33,0,0,1,4.33-22.32c1.76-7.36,3.53-14.71,5-22.12l1.08-5.57.85-5.59c.21-1.88.32-3.76.49-5.64s.09-3.78.15-5.66a102.53,102.53,0,0,0-2.58-22.48A100.15,100.15,0,0,0,551.1,300.44Z" fill="#636363"/><path d="M530.16,399.15c3.48,5.87,9.45,4.26,18.42,5.42s11.68,2.71,17.49,8.9,24,5.42,28.26,3.48c0,0-9.68-7-15.1-17.8s-12.83-21.55-23.06-20.64S522.11,385.6,530.16,399.15Z" fill="#1F3C88"/><path d="M578,408.44a31.42,31.42,0,0,1-7.26-4.58c-2.24-1.8-4.35-3.74-6.48-5.67s-4.13-4-6.69-5.32a21.79,21.79,0,0,0-8.11-2.47,20.32,20.32,0,0,0-8.42.83,16.12,16.12,0,0,0-7,4.58,13.23,13.23,0,0,0-3.43,7.53,23.26,23.26,0,0,0,1.14,8.36c1.62,5.47,3.64,10.86,5.2,16.4a167.13,167.13,0,0,1,3.86,16.82q1.53,8.49,2.44,17.08c.6,5.72,1,11.45,1.14,17.23h-1.42c0-5.69-.42-11.42-1-17.11s-1.29-11.37-2.25-17A167.91,167.91,0,0,0,536,428.34c-1.5-5.52-3.45-10.91-5-16.45a23.62,23.62,0,0,1-1.07-8.61,13.68,13.68,0,0,1,3.64-7.82,16.58,16.58,0,0,1,7.27-4.65,21,21,0,0,1,8.6-.77,22.12,22.12,0,0,1,8.2,2.6,19,19,0,0,1,3.53,2.5l3.15,2.92c2.11,1.95,4.2,3.91,6.42,5.73A31.45,31.45,0,0,0,578,408.44Z" fill="#636363"/><path d="M534.72,329.86s-8.13,8.76-17,19.28-22.06,39.94,0,44.2S549.43,360.44,534.72,329.86Z" fill="#1F3C88"/><path d="M534.78,479.17a46.9,46.9,0,0,0-.58-9,85,85,0,0,0-1.88-8.91A109.34,109.34,0,0,0,526,444.18c-2.53-5.55-5.43-10.94-7.92-16.56a40.92,40.92,0,0,1-4-17.91,76.36,76.36,0,0,1,2.81-18.16c1.55-5.93,3.4-11.76,5.18-17.62,3.59-11.69,7.21-23.38,11.09-35-3.77,11.64-7.27,23.36-10.75,35.09-1.73,5.87-3.52,11.72-5,17.64a75.74,75.74,0,0,0-2.62,18,40,40,0,0,0,4.12,17.54c2.52,5.54,5.48,10.92,8.08,16.47A110.89,110.89,0,0,1,533.52,461a83.84,83.84,0,0,1,2,9,47.85,47.85,0,0,1,.69,9.3Z" fill="#636363"/><path d="M471,429.5c7.64,6.42,5.18,16.1,20.15,21.91s25.64-3.87,22.43-13.94-13.65-11.61-27.59-11.61S471,429.5,471,429.5Z" fill="#1F3C88"/><path d="M481.68,431.66a37.36,37.36,0,0,1,8.09,3.42c2.59,1.37,5,3.14,7.47,4.6a58.21,58.21,0,0,0,7.86,3.83l4.09,1.61,2,.81a16.05,16.05,0,0,1,2,.94l.51.29c.15.1.29.23.44.34s.61.47.88.73a19.67,19.67,0,0,1,1.52,1.65,17.67,17.67,0,0,1,1.32,1.8l.62.93.55,1a42.2,42.2,0,0,1,3.51,8.14,42.94,42.94,0,0,1,1.83,8.69,37.06,37.06,0,0,1-.07,8.93l-1.41-.22A39.65,39.65,0,0,0,521.59,462a42,42,0,0,0-3.26-8l-.52-.95-.58-.91a17.07,17.07,0,0,0-1.25-1.77,19.57,19.57,0,0,0-1.41-1.61c-.25-.24-.54-.45-.8-.69s-.27-.23-.41-.33l-.45-.26a13.94,13.94,0,0,0-1.94-.94l-2-.85L504.9,444a59.18,59.18,0,0,1-7.84-4c-2.51-1.52-4.82-3.33-7.38-4.75A37.73,37.73,0,0,0,481.68,431.66Z" fill="#636363"/><polygon points="352.52 302.87 235.69 302.87 197.33 328.14 314.16 328.14 352.52 302.87" fill="#d1d1d1"/><polygon points="331.32 308.19 239.06 308.19 208.76 328.14 301.02 328.14 331.32 308.19" fill="#2f4559"/><rect x="211.53" y="343.17" width="86.71" height="28.84" fill="#2f4559"/><polygon points="298.24 372.21 211.53 372.21 184.04 357.69 270.75 357.69 298.24 372.21" fill="#d1d1d1"/><path d="M211.27,357.69s-13.81-1.43-13.94-16.93h42.58a21.61,21.61,0,0,0,11.47,16.93Z" fill="#1F3C88"/><rect x="211.53" y="385.76" width="86.71" height="28.84" fill="#2f4559"/><polygon points="298.24 414.79 211.53 414.79 184.04 400.27 270.75 400.27 298.24 414.79" fill="#d1d1d1"/><rect x="211.53" y="428.34" width="86.71" height="28.84" fill="#2f4559"/><polygon points="298.24 457.37 211.53 457.37 184.04 442.85 270.75 442.85 298.24 457.37" fill="#d1d1d1"/><path d="M195.67,442.85s-13.8-1.43-13.93-16.93h42.58a21.62,21.62,0,0,0,11.46,16.93Z" fill="#1F3C88"/><path d="M117.59,363.5h40.78s2.58,21.36,29.42,21.36c0,0-22.47,4.2-39.75,0C129,380.21,117.59,363.5,117.59,363.5Z" fill="#1F3C88"/><path d="M144.62,289.15h37.26s2.35,19.51,26.88,19.51c0,0-20.53,3.84-36.32,0C155,304.41,144.62,289.15,144.62,289.15Z" fill="#1F3C88"/><path d="M98.67,452.17h37.26s2.36-19.51,26.88-19.51c0,0-20.53-3.84-36.31,0C109.05,436.9,98.67,452.17,98.67,452.17Z" fill="#1F3C88"/><path d="M317.72,302.46c-5.14.77-.26-3.74,5.5-5.88a13.9,13.9,0,0,1,10.23,0,401.1,401.1,0,0,0,42.39,2.85l6.71-1.37,11.82,9-7.54,4.58a10,10,0,0,1-6.07,1.63A174.76,174.76,0,0,1,357.45,310c-14.45-2.84-15.54-5.81-23.47-6.32a15.13,15.13,0,0,1-5.81-.52A24.83,24.83,0,0,0,317.72,302.46Z" fill="#ffbc9d"/><path d="M356.1,328.45c-4.53,2.08-1.24-3.37,3.49-6.89s11.65-3.23,11.65-3.23a331.36,331.36,0,0,0,37.56-8.24l5.81-3.06,9.39,9.24-1.81,2.1a9.75,9.75,0,0,1-5.16,3.12,166.65,166.65,0,0,1-22.34,3.21c-14.07,1.26-15.86-1.18-23.31.47a14.46,14.46,0,0,1-5.48,1.08A23.73,23.73,0,0,0,356.1,328.45Z" fill="#ffbc9d"/><path d="M457.34,313.25H415.85l-3.94-16.81-19.77,15.31-15.27-15.31s18-19.68,24.57-36.72a66.94,66.94,0,0,1,6.3-12.49,24.34,24.34,0,0,1,20.61-11l19.07.13a11.82,11.82,0,0,1,3.24.48c6.5,1.92,11.21,8.27,12.33,12.64C467.75,268,459.14,296.89,457.34,313.25Z" fill="#1F3C88"/><path d="M415.85,313.25s-32,74-37.89,110.09,9.44,102.45,9.44,102.45H414s6.1-73,2-94.71c0,0,34.13-57.29,42.9-80s-1.5-37.83-1.5-37.83Z" fill="#17212b"/><path d="M445.58,318.16s20-2.69,15.88,29.82-9.8,78.3-9.8,78.3,10.57,27.51,11,52.28,0,47.23,0,47.23H439.79L411.91,423.72l5.68-39.61Z" fill="#17212b"/><path d="M341,325.27h38.52s-10.45,9.1-7.74,18.78,6,13.54,6,13.54H341S325.14,347.92,341,325.27Z" fill="#2f4559"/><path d="M411.91,296.44c1.39-1.93,2.76-3.88,4.07-5.85s2.63-4,3.89-6c2.55-4,5-8.09,7.21-12.25a52.74,52.74,0,0,0,5-13.18,23.88,23.88,0,0,0,.56-7,9,9,0,0,0-2.79-6.28,7.05,7.05,0,0,1,2.25,2.76,11.93,11.93,0,0,1,1,3.46,23.13,23.13,0,0,1-.3,7.19,48.6,48.6,0,0,1-4.85,13.49c-2.24,4.23-4.75,8.27-7.39,12.25A120.63,120.63,0,0,1,411.91,296.44Z" fill="#636363"/><path d="M368.88,321c-2.71,0-2.91,1-4.36,4.07s-3.18,5.22-.86,6.19a15.89,15.89,0,0,1,5.22-5.32C372.75,323.34,368.88,321,368.88,321Z" fill="#ffbc9d"/><path d="M461.24,343.17c-2.72,7.8-6.06,15.36-9.53,22.85s-7.2,14.86-11,22.18-7.87,14.51-11.92,21.71c-2,3.58-4.14,7.13-6.24,10.69l-6.41,10.59,0-.16a55.49,55.49,0,0,1,1,5.88,21.49,21.49,0,0,1,0,5.94,15.4,15.4,0,0,0,.08-3c-.05-1-.16-2-.3-2.95a54.31,54.31,0,0,0-1.17-5.81l0-.08.05-.08,6.17-10.72L428,409.47q6-10.79,11.83-21.72c3.88-7.27,7.6-14.63,11.24-22,1.81-3.7,3.56-7.44,5.27-11.18S459.73,347,461.24,343.17Z" fill="#636363"/><rect x="214.53" y="188.24" width="6.19" height="78.97" fill="#d1d1d1"/><rect x="227.35" y="203.72" width="6.19" height="63.48" fill="#d1d1d1"/><rect x="240.18" y="214.56" width="6.19" height="52.65" fill="#d1d1d1"/><rect x="253" y="200.11" width="6.19" height="67.1" fill="#d1d1d1"/><rect x="265.83" y="188.24" width="6.19" height="78.97" fill="#d1d1d1"/><rect x="278.65" y="198.82" width="6.19" height="68.39" fill="#d1d1d1"/><rect x="291.47" y="208.88" width="6.19" height="58.32" fill="#d1d1d1"/><rect x="304.3" y="188.24" width="6.19" height="78.97" fill="#d1d1d1"/><rect x="317.12" y="197.17" width="6.19" height="70.04" fill="#d1d1d1"/><rect x="329.95" y="185.14" width="6.19" height="82.06" fill="#d1d1d1"/><rect x="338.67" y="519.3" width="14.2" height="25.81" fill="#d1d1d1"/><rect x="299.96" y="519.3" width="14.2" height="25.81" fill="#f5f5f5"/><rect x="234.04" y="519.3" width="14.2" height="25.81" fill="#d1d1d1"/><rect x="491.46" y="163.81" width="92.42" height="110.91" fill="#f5f5f5"/><polygon points="584.88 275.73 490.46 275.73 490.46 163.81 492.46 163.81 492.46 273.73 582.88 273.73 582.88 163.81 584.88 163.81 584.88 275.73" fill="#d1d1d1"/><rect x="486.02" y="160.81" width="103.02" height="6" fill="#e3e3e3"/><rect x="499.73" y="200.56" width="5.86" height="5.86" fill="#d1d1d1"/><rect x="511.48" y="200.56" width="5.86" height="5.86" fill="#d1d1d1"/><rect x="523.23" y="200.56" width="5.86" height="5.86" fill="#d1d1d1"/><rect x="534.97" y="200.56" width="5.86" height="5.86" fill="#d1d1d1"/><rect x="546.72" y="200.56" width="5.86" height="5.86" fill="#d1d1d1"/><rect x="558.47" y="200.56" width="5.86" height="5.86" fill="#d1d1d1"/><rect x="570.22" y="200.56" width="5.86" height="5.86" fill="#d1d1d1"/><rect x="499.73" y="215.03" width="5.86" height="5.86" fill="#d1d1d1"/><rect x="511.48" y="215.03" width="5.86" height="5.86" fill="#d1d1d1"/><rect x="523.23" y="215.03" width="5.86" height="5.86" fill="#d1d1d1"/><rect x="534.97" y="215.03" width="5.86" height="5.86" fill="#d1d1d1"/><rect x="546.72" y="215.03" width="5.86" height="5.86" fill="#d1d1d1"/><rect x="558.47" y="215.03" width="5.86" height="5.86" fill="#d1d1d1"/><rect x="570.22" y="215.03" width="5.86" height="5.86" fill="#d1d1d1"/><rect x="499.73" y="229.49" width="5.86" height="5.86" fill="#d1d1d1"/><rect x="511.48" y="229.49" width="5.86" height="5.86" fill="#d1d1d1"/><rect x="523.23" y="229.49" width="5.86" height="5.86" fill="#d1d1d1"/><rect x="534.97" y="229.49" width="5.86" height="5.86" fill="#d1d1d1"/><rect x="546.72" y="229.49" width="5.86" height="5.86" fill="#d1d1d1"/><rect x="558.47" y="229.49" width="5.86" height="5.86" fill="#d1d1d1"/><rect x="570.22" y="229.49" width="5.86" height="5.86" fill="#d1d1d1"/><rect x="499.73" y="243.96" width="5.86" height="5.86" fill="#d1d1d1"/><rect x="511.48" y="243.96" width="5.86" height="5.86" fill="#d1d1d1"/><rect x="523.23" y="243.96" width="5.86" height="5.86" fill="#d1d1d1"/><rect x="534.97" y="243.96" width="5.86" height="5.86" fill="#d1d1d1"/><rect x="546.72" y="243.96" width="5.86" height="5.86" fill="#d1d1d1"/><rect x="558.47" y="243.96" width="5.86" height="5.86" fill="#d1d1d1"/><rect x="570.22" y="243.96" width="5.86" height="5.86" fill="#d1d1d1"/><rect x="499.73" y="258.42" width="5.86" height="5.86" fill="#d1d1d1"/><rect x="511.48" y="258.42" width="5.86" height="5.86" fill="#d1d1d1"/><rect x="523.23" y="258.42" width="5.86" height="5.86" fill="#d1d1d1"/><rect x="534.97" y="258.42" width="5.86" height="5.86" fill="#d1d1d1"/><rect x="514.33" y="173.3" width="47" height="2" fill="#d1d1d1"/><rect x="514.33" y="181.19" width="14.75" height="2" fill="#d1d1d1"/></svg>