<svg id="Layer_1" data-name="Layer 1" xmlns="http://www.w3.org/2000/svg" viewBox="0 0 700 600"><title>Corporate Illustrations Pack - Scene 9</title><path d="M235.47,308c10.32,5.92,24.26,17.68,34.91,30.78s21.28,26.76,21.28,26.76,30.22,2.28,50.34,6.84a40.34,40.34,0,0,1-3,13.48s-25.95,2.21-50.7-.11a17,17,0,0,1-10.25-3.5c-5-3.8-31.06-25.82-31.06-25.82s-21-16.7-18-33S235.47,308,235.47,308Z" fill="#17212b"/><rect x="345.5" y="54.8" width="1.96" height="68.96" fill="#e3e3e3"/><path d="M346.48,150.21a12.83,12.83,0,1,1,12.83-12.83A12.84,12.84,0,0,1,346.48,150.21Zm0-23.69a10.87,10.87,0,1,0,10.87,10.86A10.88,10.88,0,0,0,346.48,126.52Z" fill="#e3e3e3"/><path d="M409.12,137.38H283.85l6.48-6.53c26.06-26.27,44.08-34.56,56.15-34.56h0c12.08,0,30.09,8.29,56.16,34.56Z" fill="#d1d1d1"/><polygon points="599.05 521.8 599.05 547.11 618.03 547.11 618.03 513.7 599.05 521.8" fill="#d1d1d1"/><polygon points="454.02 521.8 454.02 547.11 473.1 547.11 473.1 513.7 454.02 521.8" fill="#d1d1d1"/><rect x="580.06" y="406.63" width="37.97" height="115.17" fill="#d1d1d1"/><path d="M183,334.11c-22.09-2-62.59,7.1-92,74.67s19.24,134.9,48.09,137.94H308.49s16.62-40,12.74-87.07S206,369.54,206,369.54Z" fill="#1F3C88"/><polygon points="582.94 406.63 415.66 406.63 415.66 521.8 415.66 547.11 437.68 547.11 437.68 521.8 558.04 521.8 558.04 547.11 580.06 547.11 580.06 521.8 582.94 521.8 582.94 406.63" fill="#f5f5f5"/><path d="M211,303.81s4.13-9.61,1.51-17.5-10.78-20.05-2.52-27.17,15.25-14.69,28-10.17,12.33,7.4,12.33,7.4-.08,11.75-.28,22.46-2.77,22.95-15.64,21.09L234.6,314S219.9,316.55,211,303.81Z" fill="#ffbc9d"/><path d="M215.56,287.57l1.1-7.63a11.12,11.12,0,0,1-3.42-.49c-2.32-.6-6.14-11.34-1.11-12.76s5.21,8.52,5.21,8.52l3.68.53s-3.91-10.07,1.34-16.76,8.7-6.46,11.92-2.77,6.69,7.53,12.24,6.25,10.66-7,6.91-12.61-8-4-8-4-3.66-6.23-13.6-7.93-14.91,6.7-14.91,6.7-4.95-2.86-10.1,3.1-4.74,14.33-2.64,18.39-.34.49,1.53,8c1,4.07,3.52,9.78,5.61,14.15A2.24,2.24,0,0,0,215.56,287.57Z" fill="#17212b"/><path d="M332.72,528.07l-4.53,18.65H385s-1-13.59-9.11-15.61-19.29-1.35-19.29-1.35l-9.69-11.39Z" fill="#2f4559"/><rect x="567.91" y="179.92" width="11.91" height="170.53" fill="#d1d1d1"/><rect x="447.56" y="180.81" width="120.35" height="169.63" fill="#f5f5f5"/><rect x="462.01" y="201.18" width="91.45" height="128.9" fill="#d1d1d1"/><path d="M568.89,351.43H446.58V179.83H568.89Zm-120.35-2H566.93V181.8H448.54Z" fill="#d1d1d1"/><path d="M525.09,231.69c-.9,2.77-7.38,5-16.49,5s-16.48-2.22-16.48-5,7.67-2.7,16.48-5C523.3,223,525.93,229.08,525.09,231.69Z" fill="#f5f5f5"/><path d="M529.82,253.63c0,2.75-9.5,5-21.22,5s-19.88-2.56-21.21-5c-1.42-2.59-.47-9.17,21.21-5C520.1,250.9,529.82,250.89,529.82,253.63Z" fill="#f5f5f5"/><path d="M534.54,275.58c0,2.74-11.61,5-25.94,5s-25.94-2.22-25.94-5,11.87-2.29,25.94-5C537.13,265.18,534.54,272.84,534.54,275.58Z" fill="#f5f5f5"/><path d="M539.27,297.52c0,2.74-13.73,5-30.67,5s-30.67-2.23-30.67-5,4.73-11.62,30.67-5C525,296.77,539.27,294.78,539.27,297.52Z" fill="#f5f5f5"/><path d="M571.6,508.09H426.12V418.18H571.6Zm-144.27-1.21H570.39v-87.5H427.33Z" fill="#d1d1d1"/><rect x="426.72" y="418.78" width="46.38" height="88.71" fill="#17212b"/><rect x="473.1" y="418.78" width="97.89" height="88.71" fill="#2f4559"/><rect x="518.31" y="384.42" width="65.58" height="11.1" fill="#1F3C88"/><rect x="564.75" y="387.92" width="19.14" height="4.11" fill="#fff"/><rect x="444.61" y="468.78" width="37.9" height="6.42" fill="#1F3C88"/><rect x="471.45" y="470.8" width="11.06" height="2.38" fill="#fff"/><rect x="510.1" y="395.53" width="65.58" height="11.1" fill="#17212b"/><rect x="547.08" y="399.02" width="28.6" height="4.11" fill="#fff"/><rect x="438.17" y="475.19" width="136.99" height="7.49" fill="#f5f5f5"/><rect x="438.17" y="446.8" width="136.99" height="7.49" fill="#f5f5f5"/><rect x="493.85" y="428.11" width="4.95" height="18.69" fill="#1F3C88"/><rect x="498.79" y="428.11" width="11.64" height="18.69" fill="#17212b"/><rect x="493.85" y="431.15" width="4.95" height="1.52" fill="#fff"/><path d="M335.7,387.69c-31.69,4.1-94.81,26.38-94.81,26.38l14.32,32.67,73-31.13Z" fill="#2f4559"/><path d="M257.36,365.49c-.58,9.61-3.69,54.81-3.69,54.81l-52.8-.52s-20-83.65-17.67-94,17.21-15.69,27.59-22.63c0,0,2.54,4.82,10.72,6.2,10,1.69,14-1.37,14-1.37A70.87,70.87,0,0,1,247,319.17C252.69,326,259,338.63,257.36,365.49Z" fill="#17212b"/><path d="M263.19,395.93a11.69,11.69,0,0,1,7.08,0c4.05,1.2,11.39,3.48,14.94,1.2a45.88,45.88,0,0,0,6.58-5.31s6.32,2.74,10.12,3.14-.25-2.9-4.81-7.07-8.6-11.36-11.64-10.55-10.38,2.07-18.22,4.86a62.6,62.6,0,0,1-14.43,3.29s-1.27,10.44,4.55,10.44Z" fill="#ffbc9d"/><path d="M193.33,315.76c-9.86-.71-15.19,12.3-14.81,28.93s5.31,58.39,19.74,61.81,53.54-6.32,64.93-10.57a54.09,54.09,0,0,0,0-15.25s-34.93-.76-52-.38c0,0-2.66-23.76-4.18-39.79S204,316.52,193.33,315.76Z" fill="#2f4559"/><path d="M200.87,419.78c1.42,17.09,14.72,42.46,51.4,37.87s63.57-15.75,63.57-15.75-1.2,16.74,1.55,42.05a133.27,133.27,0,0,0,12.84,44.11s13.86,3,24.58-4.63c0,0-7.41-78.29-7.28-98.88s-2.63-27.67-21.89-23.62S200.87,419.78,200.87,419.78Z" fill="#17212b"/><path d="M308.49,546.72s1.3-24.18-10.88-59.73-34.42-55.41-69.86-66.69-53.66-6.72-62.27-35.57c0,0-41,17.72-46.57,83.53s20.25,78.46,20.25,78.46Z" fill="#1F3C88"/><path d="M306.93,524.92a204.51,204.51,0,0,0-5.85-26.35c-1.26-4.32-2.62-8.61-4.17-12.83l-1.18-3.16c-.39-1.06-.77-2.12-1.24-3.14l-1.34-3.09c-.44-1-.88-2.07-1.41-3.06A98,98,0,0,0,277,450.83a90.38,90.38,0,0,0-20.54-17.25,125,125,0,0,0-24.36-11.37,254.94,254.94,0,0,0-26-7.28c-4.38-1.05-8.77-2.05-13.12-3.28a53.61,53.61,0,0,1-12.61-5,28.24,28.24,0,0,1-9.78-9.37,37.23,37.23,0,0,1-3.18-6,64,64,0,0,1-2.29-6.39l.46.21a43.22,43.22,0,0,0-5.37,3,61.68,61.68,0,0,0-5,3.63,77.15,77.15,0,0,0-9.07,8.46,88.23,88.23,0,0,0-7.74,9.7A104.31,104.31,0,0,0,132,420.54a116.46,116.46,0,0,0-5,11.36c-.68,2-1.46,3.88-2,5.87l-.93,3-.82,3a145.31,145.31,0,0,0-4.28,24.52,145.12,145.12,0,0,1,4-24.59l.78-3,.91-3c.56-2,1.32-3.95,2-5.92a108.48,108.48,0,0,1,5-11.43A102.79,102.79,0,0,1,138,409.57a91.36,91.36,0,0,1,7.76-9.79,76.85,76.85,0,0,1,9.11-8.56c1.62-1.3,3.31-2.54,5.06-3.68a43.67,43.67,0,0,1,5.45-3.12l.34-.16.11.37a60.05,60.05,0,0,0,2.29,6.31,36.33,36.33,0,0,0,3.14,5.91,29.76,29.76,0,0,0,4.23,5.13,28.88,28.88,0,0,0,5.35,4,53.48,53.48,0,0,0,12.43,4.91c4.33,1.2,8.72,2.19,13.1,3.22a240.89,240.89,0,0,1,26,7.38A124.56,124.56,0,0,1,256.84,433a91,91,0,0,1,20.62,17.45,98.69,98.69,0,0,1,14.73,22.63,157.39,157.39,0,0,1,9.18,25.42A205.49,205.49,0,0,1,306.93,524.92Z" fill="#636363"/><path d="M314.06,466.13l-16.13,10.4,41.17,39.12s8.62-10.55,4.15-17.59-13.06-14.26-13.06-14.26l.82-14.94Z" fill="#2f4559"/><path d="M341.7,401.57c-10.17,9.48-20.43,24.29-31.06,64.16,0,0,9.88,14.8,23.16,13.28,0,0,21.26-45.18,28.48-64.16s6.07-22-3.8-27-28.85,0-28.85,0l1.14,12.18a26.63,26.63,0,0,1,5.6.07A14.31,14.31,0,0,1,341.7,401.57Z" fill="#2f4559"/><polygon points="338.88 399.54 300.28 405.19 314.18 355.2 352.79 349.55 338.88 399.54" fill="#d1d1d1"/><polygon points="338.88 399.54 270.38 409.76 270.38 403.98 340.5 393.73 338.88 399.54" fill="#f5f5f5"/><ellipse cx="328.67" cy="374.71" rx="4.5" ry="3.87" transform="translate(-82.63 656.26) rotate(-83.14)" fill="#f5f5f5"/><polygon points="301.9 399.37 300.25 405.31 270.38 409.76 270.38 403.98 301.9 399.37" fill="#d1d1d1"/><polygon points="142.83 546.59 146.63 507 170.17 507 150.42 546.59 142.83 546.59" fill="#17212b"/><polygon points="237.65 546.59 233.86 507 210.32 507 230.06 546.59 237.65 546.59" fill="#17212b"/><rect x="134.48" y="491.27" width="111.37" height="15.73" fill="#17212b"/><path d="M223.23,491.27h0a10.11,10.11,0,0,1-10.11-10.1v-9.88h20.21v9.88A10.1,10.1,0,0,1,223.23,491.27Z" fill="#17212b"/><path d="M452.81,389.24s-2-1.64-3.51-3.07a14.31,14.31,0,0,1-3.52-6.36s7.22.88,9.5,4.71,2.08,4.72,2.08,4.72Z" fill="#1F3C88"/><path d="M471.6,389.24s2-1.64,3.52-3.07a14.36,14.36,0,0,0,3.51-6.36s-7.22.88-9.49,4.71-2.09,4.72-2.09,4.72Z" fill="#1F3C88"/><path d="M457.36,389.24s-2.08-2.22-2.08-7.82.47-7.12.47-7.12,5.13,4.46,5.69,8.64a39.88,39.88,0,0,1,.48,6.3Z" fill="#1F3C88"/><path d="M461.92,389.24a18.9,18.9,0,0,1,.85-8.39,39.61,39.61,0,0,1,4.56-9.11s2.85,8.48,1.52,12.78-1.43,4.72-1.43,4.72Z" fill="#1F3C88"/><path d="M454.7,387.86c-1.41-1.32-2.8-2.54-4.19-3.81-.69-.64-1.4-1.25-2.09-1.9s-1.39-1.29-2-2a20.25,20.25,0,0,1,4.78,3.19,17,17,0,0,1,2,2.06A9.12,9.12,0,0,1,454.7,387.86Z" fill="#636363"/><path d="M459.55,386c-.27-.85-.6-1.64-.9-2.45l-.91-2.42c-.3-.81-.61-1.62-.88-2.44a26.41,26.41,0,0,1-.76-2.53,18.5,18.5,0,0,1,2.54,4.63,14.89,14.89,0,0,1,.77,2.54A7.49,7.49,0,0,1,459.55,386Z" fill="#636363"/><path d="M478,380.27c-1.32,1.05-2.6,2-3.82,3.06-.62.51-1.21,1.05-1.8,1.61s-1.15,1.14-1.77,1.72a10.3,10.3,0,0,1,2.93-4.07,11.41,11.41,0,0,1,2.08-1.45A7.64,7.64,0,0,1,478,380.27Z" fill="#636363"/><path d="M464.58,386.35a13.82,13.82,0,0,1,0-3.34,30,30,0,0,1,.51-3.27,33.5,33.5,0,0,1,2-6.32,58,58,0,0,1-1,6.51C465.62,382.09,465.11,384.19,464.58,386.35Z" fill="#636363"/><path d="M462.21,406.9h0a13.67,13.67,0,0,1-13.68-13.68v-4h27.35v4A13.67,13.67,0,0,1,462.21,406.9Z" fill="#17212b"/><path d="M233.71,485a6,6,0,1,1,6-6A6,6,0,0,1,233.71,485Zm0-9.1a3.08,3.08,0,1,0,3.08,3.08A3.08,3.08,0,0,0,233.71,475.86Z" fill="#17212b"/><rect x="142.83" y="483.66" width="44.93" height="7.61" fill="#17212b"/><rect x="168.17" y="486.06" width="19.6" height="2.82" fill="#fff"/><path d="M213.32,268.2c-1.1-11.92-3-27.79,9.21-30.39l7.64-.11s-10.72,1.13-11.32,13.39S218.6,269,218.6,269Z" fill="#2f4559"/><ellipse cx="217.11" cy="275.46" rx="8.73" ry="12.41" transform="translate(-30.14 26.7) rotate(-6.58)" fill="#2f4559"/><path d="M215.68,263.12a7,7,0,0,1,4.46.86,11,11,0,0,1,3.38,3.18,16.56,16.56,0,0,1,2.8,8.76,14.23,14.23,0,0,1-2.5,8.85,8,8,0,0,1-3.68,2.83,6.31,6.31,0,0,1-4.53-.16,7,7,0,0,0,2.23.27,5.14,5.14,0,0,0,1.1-.17,5.53,5.53,0,0,0,1-.35,7.48,7.48,0,0,0,3.28-2.82,14,14,0,0,0,2.17-8.42,16.41,16.41,0,0,0-2.48-8.41,10.6,10.6,0,0,0-3-3.19A7.17,7.17,0,0,0,215.68,263.12Z" fill="#636363"/><ellipse cx="214.88" cy="275.68" rx="4.79" ry="6" transform="translate(-14.79 12.2) rotate(-3.14)" fill="#17212b"/><path d="M346.48,371.74l-10.78,4.45-2.62,7.08,5.24,6.15,10.79-4.69,1.9-10s-.64-5.39-.76-10.48-1.35-4.18-2,0A59.18,59.18,0,0,1,346.48,371.74Z" fill="#ffbc9d"/></svg>