<svg id="Layer_1" data-name="Layer 1" xmlns="http://www.w3.org/2000/svg" viewBox="0 0 700 600"><title>Corporate Illustrations Pack - Scene 7</title><rect x="582.79" y="157.5" width="12.15" height="173.87" fill="#d1d1d1"/><rect x="460.08" y="158.41" width="122.71" height="172.95" fill="#f5f5f5"/><rect x="474.82" y="179.17" width="93.24" height="131.42" fill="#d1d1d1"/><path d="M583.79,332.36H459.08v-175H583.79Zm-122.71-2H581.79v-171H461.08Z" fill="#d1d1d1"/><path d="M539.13,210.28c-.92,2.83-7.52,5.06-16.81,5.06s-16.8-2.26-16.8-5.06,7.82-2.75,16.8-5.06C537.31,201.37,540,207.62,539.13,210.28Z" fill="#f5f5f5"/><path d="M544,232.65c0,2.8-9.68,5.07-21.63,5.07s-20.27-2.62-21.62-5.07c-1.46-2.64-.48-9.35,21.62-5.06C534.05,229.87,544,229.86,544,232.65Z" fill="#f5f5f5"/><path d="M548.77,255c0,2.79-11.84,5.06-26.45,5.06s-26.44-2.27-26.44-5.06S508,252.7,522.32,250C551.41,244.43,548.77,252.23,548.77,255Z" fill="#f5f5f5"/><path d="M553.59,277.4c0,2.8-14,5.06-31.27,5.06s-31.27-2.26-31.27-5.06,4.83-11.85,31.27-5.06C539.05,276.64,553.59,274.61,553.59,277.4Z" fill="#f5f5f5"/><path d="M380.86,354.46c-1.6,3.64-10.48,10.6-15.66,13.3S346,378.56,346,378.56a8.07,8.07,0,0,1-4.29,4.79,39,39,0,0,1-4.33,1.55,5.19,5.19,0,0,1,3.32-5l-5,1.95s.66,2.52-2.89,1.91.86-6.36,4.78-7.29a23.24,23.24,0,0,0,6.11-2.25s7.82-9,13.88-15.16S370,344.93,370,344.93l10.82-2.57v12.1Z" fill="#ffbc9d"/><polygon points="216.03 519.11 216.03 544.92 238.48 544.92 238.48 510.85 216.03 519.11" fill="#d1d1d1"/><polygon points="144.18 519.11 144.18 544.92 163.63 544.92 163.63 510.85 144.18 519.11" fill="#d1d1d1"/><polygon points="218.96 401.69 105.06 401.69 105.06 519.11 105.06 544.92 127.51 544.92 127.51 519.11 218.96 519.11 218.96 401.69" fill="#f5f5f5"/><path d="M207.4,505.13H115.73V413.46H207.4ZM117,503.9h89.21V414.69H117Z" fill="#d1d1d1"/><rect x="116.34" y="414.08" width="47.29" height="90.44" fill="#17212b"/><rect x="163.63" y="414.08" width="43.16" height="90.44" fill="#2f4559"/><rect x="349" y="54.71" width="2" height="59.98" fill="#e3e3e3"/><rect x="307.25" y="134.73" width="85.51" height="2" fill="#f2f3f4"/><path d="M350,147a11.3,11.3,0,1,1,11.3-11.3A11.31,11.31,0,0,1,350,147Zm0-20.6a9.3,9.3,0,1,0,9.3,9.3A9.31,9.31,0,0,0,350,126.43Z" fill="#e3e3e3"/><path d="M383.54,135.73H316.46v-2.21A33.54,33.54,0,0,1,350,100h0a33.54,33.54,0,0,1,33.54,33.54Z" fill="#f5f5f5"/><path d="M301.45,528.93h-8.1c-18.19,0-18.61,15.89-18.61,15.89l50.75,0-5.82-15.87,3-5.45H304.92Z" fill="#1F3C88"/><rect x="216.03" y="401.69" width="38.71" height="117.42" fill="#d1d1d1"/><rect x="148.67" y="373.82" width="82.3" height="13.94" fill="#1F3C88"/><rect x="206.95" y="378.21" width="24.02" height="5.16" fill="#fff"/><rect x="134.58" y="465.05" width="38.64" height="6.54" fill="#1F3C88"/><rect x="161.94" y="467.11" width="11.28" height="2.42" fill="#fff"/><rect x="138.37" y="387.76" width="82.3" height="13.94" fill="#17212b"/><rect x="184.78" y="392.14" width="35.89" height="5.16" fill="#fff"/><rect x="251.81" y="455.61" width="191.21" height="63.5" fill="#2f4559"/><rect x="270.95" y="373.97" width="213.36" height="65.65" fill="#2f4559"/><rect x="251.81" y="414.72" width="191.21" height="40.9" fill="#17212b"/><polygon points="235.6 519.11 235.6 544.92 251.81 544.92 251.81 510.85 235.6 519.11" fill="#2f4559"/><polygon points="461.94 519.11 461.94 544.92 478.15 544.92 478.15 510.85 461.94 519.11" fill="#2f4559"/><rect x="478.36" y="373.82" width="51.36" height="145.29" fill="#17212b"/><path d="M478.36,373.82h0a0,0,0,0,1,0,0V519.11a0,0,0,0,1,0,0H443a0,0,0,0,1,0,0V409.17A35.35,35.35,0,0,1,478.36,373.82Z" fill="#2f4559"/><path d="M478.36,373.82a39.75,39.75,0,0,0-10.12,1.74,38.83,38.83,0,0,0-9.17,4.49,37.91,37.91,0,0,0-7.48,6.88,39.07,39.07,0,0,0-5.25,8.69,38.27,38.27,0,0,0-2.48,9.82c-.26,3.35-.19,6.82-.21,10.26l0,20.68-.05,20.69-.13,20.68c-.06,13.79-.26,27.57-.41,41.36-.15-13.79-.35-27.57-.41-41.36l-.13-20.68-.05-20.69,0-20.68c0-3.44-.1-6.88.21-10.4a35.67,35.67,0,0,1,8.16-19.05,39,39,0,0,1,7.86-6.88,36.26,36.26,0,0,1,9.48-4.27A37.54,37.54,0,0,1,478.36,373.82Z" fill="#636363"/><path d="M359.83,523.47l28.87-10.33a221.45,221.45,0,0,0-5-44.38c-5.21-23.75-23.88-54.68-23.88-54.68l11.48-26.32s-20.94,1.8-30.61,4.38-21.55,14.16-15.36,36.36S359.83,523.47,359.83,523.47Z" fill="#17212b"/><path d="M418.5,365.79s19.36,18.38,6.45,35.9S359.83,429,359.83,429s-16.07,69.56-36.2,100H290.52s15.21-64.39,21.92-86.59,5.36-20.21,24.8-35.63c14.52-11.51,44.36-38.17,44.36-38.17Z" fill="#17212b"/><path d="M381.92,350.85l-14.13-3.68s5.23-40.67,7.75-49,6.38-10.25,13.74-9.67S381.92,350.85,381.92,350.85Z" fill="#1F3C88"/><path d="M407.58,283.81s-7.4,11-21.85,6.11c0,0-8.19,11.87-14.42,21.67s-.55,16.64,3.58,30.77,6.71,26.27,6.71,26.27,21.94,10.32,36.9-2.84L429.34,353l4.26.9s2.71-4.45,2.13-15.87-6.19-25-10.07-34.46S419.89,286.67,407.58,283.81Z" fill="#1F3C88"/><polygon points="346.5 378.21 388.7 378.21 367.79 394.72 340.7 394.72 346.5 378.21" fill="#d1d1d1"/><polygon points="367.79 394.72 300.44 394.72 288.44 353.01 355.79 353.01 367.79 394.72" fill="#f5f5f5"/><path d="M386.49,514l10.82,13-47.78,17.1s-4.95-15.09,12.18-21.22L386.49,514Z" fill="#1F3C88"/><path d="M411.79,349s-19.09,18.13-29.93,31.78a17.91,17.91,0,0,0-8.79,0c-4.37,1.26-13.24,2.58-13.24,2.58s1.12,3.39,6.8,4.39c0,0,1.55,1.77-3,3.58s-8.38-.2-7.87,3.38,8.84,6,15.52,2.58S386,386.17,386,386.17s23-13.41,32.51-20.38S429.34,353,429.34,353Z" fill="#ffbc9d"/><path d="M411.79,349c-.74-4.81-1.38-9.63-2-14.46s-1.16-9.66-1.75-14.5l-.77-7.25a39.18,39.18,0,0,1-.22-7.35,36,36,0,0,1,3.71-14.1,35.22,35.22,0,0,0-2.06,7,41.25,41.25,0,0,0-.83,7.18,44.84,44.84,0,0,0,.35,7.22l.84,7.24c.5,4.84,1.05,9.67,1.5,14.52S411.46,344.15,411.79,349Z" fill="#636363"/><polygon points="552.88 545.29 517.01 545.29 503.27 486.02 566.62 486.02 552.88 545.29" fill="#2f4559"/><rect x="498.58" y="479.23" width="72.73" height="17.82" fill="#2f4559"/><path d="M505.83,497.05c2.42-.16,4.85-.23,7.28-.35l7.28-.19c4.85-.13,9.7-.15,14.55-.17s9.71,0,14.56.17l7.28.19c2.43.12,4.85.19,7.28.35-2.43.16-4.85.23-7.28.35l-7.28.2c-4.85.13-9.7.14-14.56.16s-9.7,0-14.55-.16l-7.28-.2C510.68,497.28,508.25,497.21,505.83,497.05Z" fill="#636363"/><path d="M541.23,289.08s.52,4.91-3.87,18.58,3.36,39.56,16,44.56,22.71-9.72,19.87-24.43-12.38-23-19.61-29.16A132.34,132.34,0,0,0,541.23,289.08Z" fill="#1F3C88"/><path d="M548.46,300.44a100.48,100.48,0,0,1,7.46,21.39,102.25,102.25,0,0,1,2.76,22.51c0,1.9,0,3.8-.11,5.69s-.24,3.78-.45,5.67l-.8,5.63-1,5.58c-1.43,7.44-3.15,14.81-4.85,22.18a199.41,199.41,0,0,0-4.14,22.26,130,130,0,0,0-.62,22.58l.73,11.32c.22,3.78.41,7.57.49,11.36s.11,7.59,0,11.39c-.07,1.9-.18,3.8-.36,5.7a35.79,35.79,0,0,1-.88,5.75l-1.35-.43a37.36,37.36,0,0,0,.87-5.45c.19-1.87.3-3.75.39-5.63.17-3.76.19-7.53.13-11.3s-.21-7.55-.4-11.32L545.6,434a131.78,131.78,0,0,1,.81-22.73,200.33,200.33,0,0,1,4.33-22.32c1.76-7.36,3.53-14.71,5-22.12l1.08-5.57.84-5.59c.22-1.88.33-3.76.49-5.64s.1-3.78.16-5.66a102.53,102.53,0,0,0-2.58-22.48A100.71,100.71,0,0,0,548.46,300.44Z" fill="#636363"/><path d="M527.51,399.15c3.49,5.87,9.45,4.26,18.43,5.42s11.68,2.71,17.49,8.9,24,5.42,28.25,3.48c0,0-9.67-7-15.09-17.8s-12.83-21.55-23.06-20.64S519.47,385.6,527.51,399.15Z" fill="#1F3C88"/><path d="M575.31,408.44a31.42,31.42,0,0,1-7.26-4.58c-2.24-1.8-4.36-3.74-6.48-5.67s-4.13-4-6.69-5.32a21.89,21.89,0,0,0-8.12-2.47,20.28,20.28,0,0,0-8.41.83,16.12,16.12,0,0,0-7,4.58,13.1,13.1,0,0,0-3.43,7.53,23,23,0,0,0,1.14,8.36c1.62,5.47,3.64,10.86,5.2,16.4a164.39,164.39,0,0,1,3.85,16.82q1.54,8.49,2.44,17.08c.6,5.72,1,11.45,1.15,17.23h-1.42c0-5.69-.42-11.42-1-17.11s-1.29-11.37-2.26-17a162.49,162.49,0,0,0-3.66-16.76c-1.49-5.52-3.45-10.91-5-16.45a23.84,23.84,0,0,1-1.08-8.61,13.69,13.69,0,0,1,3.65-7.82,16.53,16.53,0,0,1,7.27-4.65,21,21,0,0,1,8.59-.77,22.23,22.23,0,0,1,8.21,2.6,19.22,19.22,0,0,1,3.52,2.5l3.16,2.92c2.1,1.95,4.2,3.91,6.41,5.73A31.51,31.51,0,0,0,575.31,408.44Z" fill="#636363"/><path d="M532.07,329.86s-8.13,8.76-17,19.28-22.06,39.94,0,44.2S546.78,360.44,532.07,329.86Z" fill="#1F3C88"/><path d="M532.14,479.17a46.91,46.91,0,0,0-.59-9,82.46,82.46,0,0,0-1.87-8.91,110.35,110.35,0,0,0-6.29-17.11c-2.53-5.55-5.43-10.94-7.92-16.56a40.79,40.79,0,0,1-4-17.91,76.37,76.37,0,0,1,2.82-18.16c1.54-5.93,3.39-11.76,5.17-17.62,3.6-11.69,7.21-23.38,11.09-35-3.76,11.64-7.26,23.36-10.75,35.09-1.72,5.87-3.52,11.72-5,17.64a75.75,75.75,0,0,0-2.63,18,40.1,40.1,0,0,0,4.13,17.54c2.52,5.54,5.48,10.92,8.08,16.47A111.91,111.91,0,0,1,530.88,461a86.32,86.32,0,0,1,2,9,47.85,47.85,0,0,1,.68,9.3Z" fill="#636363"/><path d="M468.31,429.5c7.63,6.42,5.18,16.1,20.15,21.91s25.64-3.87,22.43-13.94-13.66-11.61-27.59-11.61S468.31,429.5,468.31,429.5Z" fill="#1F3C88"/><path d="M479,431.66a37.28,37.28,0,0,1,8.08,3.42c2.6,1.37,5,3.14,7.48,4.6a57.63,57.63,0,0,0,7.86,3.83l4.08,1.61,2,.81a16.05,16.05,0,0,1,2,.94l.5.29c.16.1.3.23.45.34s.6.47.88.73a18,18,0,0,1,1.51,1.65,17.77,17.77,0,0,1,1.33,1.8l.61.93.56,1a42.83,42.83,0,0,1,3.51,8.14,43.63,43.63,0,0,1,1.83,8.69,37.06,37.06,0,0,1-.08,8.93l-1.4-.22A39.8,39.8,0,0,0,519,462a42.06,42.06,0,0,0-3.27-8l-.52-.95-.58-.91a17,17,0,0,0-1.24-1.77,19.57,19.57,0,0,0-1.41-1.61c-.26-.24-.54-.45-.81-.69a4.54,4.54,0,0,0-.41-.33l-.45-.26a13.29,13.29,0,0,0-1.93-.94l-2-.85L502.25,444a59.68,59.68,0,0,1-7.83-4c-2.52-1.52-4.83-3.33-7.39-4.75A37.43,37.43,0,0,0,479,431.66Z" fill="#636363"/><path d="M270.95,373.82h0a0,0,0,0,1,0,0V519.11a0,0,0,0,1,0,0H235.6a0,0,0,0,1,0,0V409.17A35.35,35.35,0,0,1,270.95,373.82Z" fill="#2f4559"/><path d="M271,378.61c.52,5.91.57,11.82.54,17.73,0,3-.06,5.92-.16,8.87s-.19,5.91-.38,8.87c-.2-3-.31-5.91-.39-8.87s-.14-5.91-.16-8.87C270.37,390.43,270.42,384.52,271,378.61Z" fill="#636363"/><rect x="478.36" y="519.11" width="10.06" height="25.81" fill="#17212b"/><rect x="249.71" y="519.11" width="10.06" height="25.81" fill="#17212b"/><ellipse cx="327.73" cy="372.48" rx="4.22" ry="5.19" transform="translate(-168.36 366.39) rotate(-47.95)" fill="#d1d1d1"/><path d="M363.47,260.77s-3.1-.64-6-8.36S351.4,235,359,231.09s14.07,8.43,14.07,8.43l-6.74,19.91Z" fill="#17212b"/><path d="M359.83,237l2.67,22.85s1.39,11.92,9.69,14,13.9-1.62,13.9-1.62a22.52,22.52,0,0,1,1.05,8.93l-1.41,8.76s3.19,2.21,11.62,1.13c7-.9,10.23-7.24,10.23-7.24s-7.88-7.13-8.92-16.07-2.37-28.92-2.37-28.92l-15.48-3.23Z" fill="#ffbc9d"/><path d="M387.1,255s-11,.28-22.13-8.49-8.05-17.18-1.45-21,10.7-3.26,19.87-2.32c0,0-3.26-10.7,9.65-12.2s17,16.14,5.18,18.52c0,0,8.53,4,10.15,17.94s-9.48,22.25-9.48,22.25-7.39,1.37-5.22-5.93c0,0-4,.46-3.33-2.63s3.09.64,4.27-6.54-5.13-9.47-6.54-4.27S387.1,255,387.1,255Z" fill="#17212b"/><path d="M383.07,293.81c-3,4.13-5.79,8.35-8.35,12.72L371,313.19a15.3,15.3,0,0,0-1.38,3.43,13,13,0,0,0-.31,3.64,36.68,36.68,0,0,0,1.35,7.35c.64,2.43,1.43,4.84,2.13,7.29s1.43,4.87,2.08,7.33,1.3,4.92,1.75,7.43c-1.45-4.87-3.2-9.64-4.8-14.45s-3.36-9.68-3.54-14.92a13.68,13.68,0,0,1,.46-3.91,16.3,16.3,0,0,1,1.56-3.57l3.91-6.56A142.59,142.59,0,0,1,383.07,293.81Z" fill="#636363"/><path d="M406.51,414.72a232.91,232.91,0,0,1-22.82,8.85,153.56,153.56,0,0,1-23.79,5.94l.43-.42c-.88,5-2,10-3.29,14.9s-2.64,9.81-4.12,14.67-3.08,9.68-4.8,14.46-3.51,9.52-5.37,14.24c1.79-4.75,3.53-9.51,5.14-14.33s3.11-9.65,4.55-14.51,2.7-9.78,3.87-14.71,2.24-9.89,3-14.87l.06-.37.36-.05a153.24,153.24,0,0,0,23.78-5.42A235.3,235.3,0,0,0,406.51,414.72Z" fill="#636363"/><path d="M379.77,455.45c-1.08-2.31-2.09-4.63-3.11-6.95l-3-7-3-7c-.5-1.17-1-2.31-1.58-3.46l-.8-1.72q-.43-.84-.84-1.71a52.26,52.26,0,0,1,3.92,6.55c1.19,2.25,2.25,4.57,3.26,6.9s2,4.69,2.82,7.09S379.07,453,379.77,455.45Z" fill="#636363"/><path d="M351.77,394.72,335,408.31c-2.76,2.29-5.65,4.44-8.19,6.95a39.71,39.71,0,0,0-6.63,8.33,59,59,0,0,0-4.45,9.69c-1.21,3.37-2.39,6.76-3.46,10.18-2.15,6.85-4,13.78-5.78,20.74,1.38-7.05,3.15-14,5.12-20.94,1-3.45,2-6.9,3.26-10.29a50.72,50.72,0,0,1,4.59-9.82,39.63,39.63,0,0,1,6.93-8.34c2.64-2.47,5.57-4.57,8.37-6.81Z" fill="#636363"/><rect x="167.25" y="300.44" width="60.53" height="10.12" fill="#f5f5f5"/><rect x="224.99" y="300.44" width="38.06" height="10.12" fill="#d1d1d1"/><rect x="197.68" y="258.41" width="60.53" height="10.12" fill="#f5f5f5"/><rect x="255.43" y="258.41" width="38.06" height="10.12" fill="#d1d1d1"/><rect x="155.5" y="216.22" width="60.53" height="10.12" fill="#f5f5f5"/><rect x="213.24" y="216.22" width="38.06" height="10.12" fill="#d1d1d1"/><rect x="187.31" y="174.71" width="60.53" height="10.12" fill="#f5f5f5"/><rect x="245.06" y="174.71" width="38.06" height="10.12" fill="#d1d1d1"/><path d="M192.34,282.43s-2.06-1.66-3.58-3.13a14.55,14.55,0,0,1-3.58-6.48s7.36.9,9.68,4.81,2.13,4.8,2.13,4.8Z" fill="#1F3C88"/><path d="M211.51,282.43s2.06-1.66,3.58-3.13a14.55,14.55,0,0,0,3.58-6.48s-7.36.9-9.68,4.81-2.13,4.8-2.13,4.8Z" fill="#1F3C88"/><path d="M197,282.43s-2.13-2.26-2.13-8,.48-7.26.48-7.26,5.23,4.55,5.81,8.8a39.82,39.82,0,0,1,.48,6.42Z" fill="#1F3C88"/><path d="M201.63,282.43a19.46,19.46,0,0,1,.87-8.55,40.49,40.49,0,0,1,4.65-9.29s2.9,8.65,1.55,13-1.45,4.8-1.45,4.8Z" fill="#1F3C88"/><path d="M194.27,281c-1.43-1.33-2.85-2.58-4.27-3.87-.7-.65-1.43-1.28-2.13-1.95s-1.41-1.31-2.08-2a20.4,20.4,0,0,1,4.87,3.25,17,17,0,0,1,2.05,2.1A9.43,9.43,0,0,1,194.27,281Z" fill="#636363"/><path d="M199.22,279.17c-.28-.87-.61-1.68-.92-2.5l-.93-2.47c-.3-.83-.62-1.65-.9-2.49s-.56-1.69-.77-2.58a18.72,18.72,0,0,1,2.59,4.72,15.75,15.75,0,0,1,.78,2.59A7.37,7.37,0,0,1,199.22,279.17Z" fill="#636363"/><path d="M218,273.29c-1.35,1.08-2.65,2-3.9,3.12-.63.52-1.23,1.07-1.83,1.64s-1.17,1.17-1.81,1.76a10.42,10.42,0,0,1,3-4.16,11.07,11.07,0,0,1,2.11-1.47A8.07,8.07,0,0,1,218,273.29Z" fill="#636363"/><path d="M204.34,279.49a14.33,14.33,0,0,1,0-3.4,31,31,0,0,1,.53-3.34,33.44,33.44,0,0,1,2-6.45,60.56,60.56,0,0,1-1,6.65C205.4,275.14,204.88,277.29,204.34,279.49Z" fill="#636363"/><path d="M201.93,300.44h0A13.94,13.94,0,0,1,188,286.5v-4.07h27.88v4.07A13.94,13.94,0,0,1,201.93,300.44Z" fill="#17212b"/><path d="M225.91,183.71c1.62,4.38-1.92,9.19-4.54,8.66-2.09-.43-.21-2.81,1.33-6.32C224,183.15,224.34,179.46,225.91,183.71Z" fill="#1F3C88"/><path d="M226.33,170.06c-.27,4.66,4.53,8.22,6.87,6.95,1.88-1-.61-2.74-3.11-5.65C228,169,226.59,165.54,226.33,170.06Z" fill="#1F3C88"/><path d="M218.32,158.11c-3.15,3.44-1.69,9.23.93,9.72,2.1.4,1.26-2.51,1.16-6.34C220.33,158.32,221.38,154.77,218.32,158.11Z" fill="#1F3C88"/><path d="M272.23,174.89c.92,4.57,6.46,6.81,8.41,5,1.56-1.46-1.29-2.5-4.45-4.68C273.59,173.4,271.33,170.45,272.23,174.89Z" fill="#1F3C88"/><path d="M252,202.5c4.39,1.6,9.18-2,8.63-4.58-.43-2.09-2.8-.2-6.3,1.36C251.43,200.57,247.75,201,252,202.5Z" fill="#1F3C88"/><path d="M260.64,250c4.32-1.76,5.48-7.62,3.33-9.19-1.73-1.26-2.22,1.73-3.77,5.24C258.92,249,256.44,251.73,260.64,250Z" fill="#1F3C88"/><path d="M271,229.1c-4.66.2-8.15-4.65-6.84-7,1.05-1.86,2.74.66,5.6,3.2C272.08,227.43,275.48,228.91,271,229.1Z" fill="#1F3C88"/><path d="M275.05,257.32c-4.66.2-8.15-4.65-6.84-7,1.05-1.87,2.74.65,5.6,3.2C276.18,255.65,279.58,257.13,275.05,257.32Z" fill="#1F3C88"/><path d="M251.16,156.55a12.64,12.64,0,0,1,1.5-8.48,9.25,9.25,0,0,1,3.2-3,12.17,12.17,0,0,1,4.18-1.45,5.5,5.5,0,0,1,4.37,1.21A10.22,10.22,0,0,1,267,148.4a30.5,30.5,0,0,1,2.19,8.38,79.86,79.86,0,0,1,.16,17.14,107.57,107.57,0,0,1-2.8,16.9c-.35,1.39-.74,2.77-1.16,4.14s-.94,2.71-1.33,4a45.7,45.7,0,0,0-1.57,8.25,79.51,79.51,0,0,0,.27,16.89,100.36,100.36,0,0,0,3.28,16.64,68.47,68.47,0,0,0,2.81,8,33.74,33.74,0,0,0,1.91,3.8,12,12,0,0,0,2.64,3.3,12.13,12.13,0,0,1-2.8-3.21,35.77,35.77,0,0,1-2-3.75,65.4,65.4,0,0,1-3.08-8,101,101,0,0,1-3.68-16.69,79,79,0,0,1-.46-17.12,47.27,47.27,0,0,1,1.53-8.49c.4-1.41.91-2.73,1.32-4.07s.79-2.7,1.14-4.07a107,107,0,0,0,2.77-16.7,85,85,0,0,0-.08-16.88,28.69,28.69,0,0,0-2-8.08,9.07,9.07,0,0,0-2.29-3.25,4.52,4.52,0,0,0-3.58-1,9.57,9.57,0,0,0-6.83,3.95,12,12,0,0,0-1.57,7.93Z" fill="#636363"/><path d="M266.73,189.68a24.62,24.62,0,0,1-4.49,6.92,18.07,18.07,0,0,1-3.14,2.65,13.18,13.18,0,0,1-3.73,1.63A13.11,13.11,0,0,0,259,199a17.36,17.36,0,0,0,2.91-2.77,23.33,23.33,0,0,0,2.25-3.32,24.54,24.54,0,0,0,1.68-3.61Z" fill="#636363"/><path d="M262.16,212.64a19.71,19.71,0,0,0,.34,4,20.13,20.13,0,0,0,1.11,3.85,16.38,16.38,0,0,0,4.67,6.51,15.81,15.81,0,0,1-2.95-2.83,16.28,16.28,0,0,1-2.18-3.48,20.73,20.73,0,0,1-1.39-3.89,20.27,20.27,0,0,1-.6-4.14Z" fill="#636363"/><path d="M264.35,234.28a17.83,17.83,0,0,1,.35,3.32,18.32,18.32,0,0,1-.25,3.31,13.18,13.18,0,0,1-1,3.16,11,11,0,0,1-1.81,2.75,11.12,11.12,0,0,0,1.69-2.8,13.67,13.67,0,0,0,.83-3.15,17.67,17.67,0,0,0,.11-3.25,17,17,0,0,0-.47-3.2Z" fill="#636363"/><path d="M252,192c-4.38,1.59-9.17-2-8.63-4.58.44-2.1,2.81-.2,6.31,1.36C252.53,190.08,256.22,190.46,252,192Z" fill="#1F3C88"/><path d="M243.32,239.54c-4.32-1.76-5.48-7.62-3.33-9.19,1.73-1.26,2.22,1.73,3.77,5.24C245,238.48,247.52,241.24,243.32,239.54Z" fill="#1F3C88"/><path d="M233,218.61c4.66.19,8.15-4.65,6.84-7-1-1.86-2.74.66-5.6,3.2C231.88,216.94,228.48,218.42,233,218.61Z" fill="#1F3C88"/><path d="M228.91,246.83c4.66.2,8.15-4.65,6.84-7-1.05-1.86-2.74.66-5.6,3.2C227.78,245.16,224.38,246.64,228.91,246.83Z" fill="#1F3C88"/><path d="M230.53,245.4a11.16,11.16,0,0,0,2.34-2.78,27.59,27.59,0,0,0,1.72-3.22,54.88,54.88,0,0,0,2.6-6.81,95.76,95.76,0,0,0,3.34-14.18,98,98,0,0,0,1.25-14.5,56.7,56.7,0,0,0-1.61-14.36c-3-9.16-6.47-18.49-7.52-28.32a24.7,24.7,0,0,1,.29-7.47,9.45,9.45,0,0,1,1.54-3.52,6.36,6.36,0,0,1,3.16-2.29,9.33,9.33,0,0,1,3.82-.36,5.49,5.49,0,0,1,3.44,1.77,7.73,7.73,0,0,1,1.65,3.42,16.69,16.69,0,0,1,.35,3.72h-.58c-.07-2.37-.45-4.9-2-6.61a4.66,4.66,0,0,0-3-1.44,8.54,8.54,0,0,0-3.41.41,5.54,5.54,0,0,0-2.64,2A8.51,8.51,0,0,0,234,154a23.49,23.49,0,0,0-.16,7.11,83.73,83.73,0,0,0,3,14.18c.68,2.33,1.42,4.65,2.19,7s1.65,4.58,2.27,7a57.19,57.19,0,0,1,1.49,14.67,88.49,88.49,0,0,1-1.48,14.63,94.06,94.06,0,0,1-3.69,14.2,56.52,56.52,0,0,1-2.85,6.76,28.83,28.83,0,0,1-1.84,3.18A11.06,11.06,0,0,1,230.53,245.4Z" fill="#636363"/><path d="M237.92,178.94a25.12,25.12,0,0,0,1.75,3.62,23.67,23.67,0,0,0,2.33,3.3,17.07,17.07,0,0,0,3,2.74,13.35,13.35,0,0,0,3.63,1.79,13.46,13.46,0,0,1-3.7-1.69,17.78,17.78,0,0,1-3.07-2.68,24.56,24.56,0,0,1-4.35-6.92Z" fill="#636363"/><path d="M242.8,202.12a20.17,20.17,0,0,1-.6,4.13,20.57,20.57,0,0,1-1.39,3.9,16.28,16.28,0,0,1-2.18,3.48,16.07,16.07,0,0,1-2.94,2.83,16.64,16.64,0,0,0,4.67-6.51,20.88,20.88,0,0,0,1.11-3.85,20.49,20.49,0,0,0,.33-4Z" fill="#636363"/><path d="M240.14,223.93a17.9,17.9,0,0,0-.47,3.2,17.68,17.68,0,0,0,.12,3.25,12.85,12.85,0,0,0,.83,3.15,11.08,11.08,0,0,0,1.68,2.8,11.29,11.29,0,0,1-1.81-2.75,13.44,13.44,0,0,1-1-3.16,17.46,17.46,0,0,1-.26-3.31,17.83,17.83,0,0,1,.35-3.32Z" fill="#636363"/><path d="M269.62,165.92a28.89,28.89,0,0,0,1.27,3.85,26.42,26.42,0,0,0,1.8,3.66,18.57,18.57,0,0,0,2.47,3.25,12.53,12.53,0,0,0,3.31,2.4,12.54,12.54,0,0,1-3.49-2.22,19.49,19.49,0,0,1-2.71-3.16,27.64,27.64,0,0,1-2.07-3.63,28.79,28.79,0,0,1-1.55-3.9Z" fill="#636363"/><path d="M247.9,156.48a32.2,32.2,0,0,0-1.25-10.24,15.22,15.22,0,0,0-2.25-4.57,8.2,8.2,0,0,0-4-3,11.07,11.07,0,0,0-5-.32,10.57,10.57,0,0,0-4.74,1.72,11,11,0,0,0-3.48,3.68,16.83,16.83,0,0,0-1.93,4.75,28.32,28.32,0,0,0-.78,5.1,42.48,42.48,0,0,0-.07,5.17c.14,3.49.37,7,.57,10.47s.31,7,.27,10.51a38.67,38.67,0,0,1-1.39,10.39,40.74,40.74,0,0,0,.9-10.39c-.06-3.49-.33-7-.58-10.46s-.56-7-.77-10.47a32,32,0,0,1,1.1-10.53,19.09,19.09,0,0,1,2.13-4.88,12.11,12.11,0,0,1,3.67-3.87,11.2,11.2,0,0,1,5-1.84,11.79,11.79,0,0,1,5.34.33,8.92,8.92,0,0,1,4.31,3.19,15.83,15.83,0,0,1,2.37,4.78,33.82,33.82,0,0,1,1.43,10.49Z" fill="#636363"/><path d="M224.56,162.16a46.88,46.88,0,0,0,2.87,6.74,25,25,0,0,0,1.92,3.13,13,13,0,0,0,2.51,2.68,13.22,13.22,0,0,1-2.71-2.52,26.89,26.89,0,0,1-2.15-3,46.26,46.26,0,0,1-3.38-6.66Z" fill="#636363"/><polygon points="255.11 174.71 239.86 174.71 235.21 155.77 259.76 155.77 255.11 174.71" fill="#2f4559"/><path d="M224.93,149.86a20.76,20.76,0,0,0-2.38,2.86,27.71,27.71,0,0,0-2,3.22,30.78,30.78,0,0,0-1.52,3.48,35,35,0,0,0-1.08,3.66,30.17,30.17,0,0,1,.85-3.74,29.33,29.33,0,0,1,1.3-3.61,28.67,28.67,0,0,1,1.79-3.43,20.91,20.91,0,0,1,2.32-3.15Z" fill="#636363"/><rect x="128.02" y="471.59" width="83.01" height="7.64" fill="#f5f5f5"/><rect x="128.02" y="442.65" width="83.01" height="7.64" fill="#f5f5f5"/><rect x="184.78" y="423.59" width="5.04" height="19.05" fill="#1F3C88"/><rect x="189.82" y="423.59" width="11.87" height="19.05" fill="#17212b"/><rect x="184.78" y="426.69" width="5.04" height="1.55" fill="#fff"/></svg>